<svg width="1024" height="1024" viewBox="0 0 1024 1024" fill="none" xmlns="http://www.w3.org/2000/svg">
<path fill-rule="evenodd" clip-rule="evenodd" d="M0 512V1024H512H1024V512V0H512H0V512Z" fill="#353638"/>
<path fill-rule="evenodd" clip-rule="evenodd" d="M0 512V1024H512H1024V512V0H512H0V512ZM217.75 584.25C217.601 609.138 217.479 588.775 217.479 539C217.479 489.225 217.601 468.863 217.75 493.75C217.899 518.638 217.899 559.363 217.75 584.25ZM507.748 523.75C507.578 531.313 507.439 525.125 507.439 510C507.439 494.875 507.578 488.688 507.748 496.25C507.917 503.813 507.917 516.188 507.748 523.75ZM498.683 520.188C498.364 520.985 498.127 520.748 498.079 519.583C498.036 518.529 498.272 517.939 498.604 518.271C498.936 518.603 498.972 519.466 498.683 520.188ZM507.707 545.238C507.468 546.482 507.263 545.7 507.252 543.5C507.241 541.3 507.437 540.282 507.687 541.238C507.937 542.194 507.946 543.994 507.707 545.238ZM422.683 547.188C422.364 547.985 422.127 547.748 422.079 546.583C422.036 545.529 422.272 544.939 422.604 545.271C422.936 545.603 422.972 546.466 422.683 547.188ZM498.706 558.25C498.467 559.487 498.272 558.475 498.272 556C498.272 553.525 498.467 552.513 498.706 553.75C498.944 554.987 498.944 557.013 498.706 558.25ZM579.733 563.224C579.522 565.576 579.346 563.9 579.343 559.5C579.339 555.1 579.512 553.176 579.727 555.224C579.942 557.272 579.945 560.872 579.733 563.224ZM290.74 585.25C290.545 588.688 290.385 585.875 290.385 579C290.385 572.125 290.545 569.313 290.74 572.75C290.936 576.188 290.936 581.813 290.74 585.25ZM578.73 671.728C578.513 673.802 578.333 672.35 578.328 668.5C578.324 664.65 578.501 662.952 578.722 664.728C578.943 666.503 578.946 669.653 578.73 671.728ZM576.683 829.188C576.364 829.985 576.127 829.748 576.079 828.583C576.036 827.529 576.272 826.939 576.604 827.271C576.936 827.603 576.972 828.466 576.683 829.188ZM699.662 830.25C699.385 830.938 699.158 830.375 699.158 829C699.158 827.625 699.385 827.063 699.662 827.75C699.94 828.438 699.94 829.563 699.662 830.25ZM254.725 837.232C254.502 839.029 254.315 837.8 254.31 834.5C254.304 831.2 254.486 829.729 254.715 831.232C254.943 832.735 254.947 835.435 254.725 837.232ZM425.662 837.25C425.385 837.938 425.158 837.375 425.158 836C425.158 834.625 425.385 834.063 425.662 834.75C425.94 835.438 425.94 836.563 425.662 837.25ZM724 837.345C724 837.535 722.987 838.547 721.75 839.595L719.5 841.5L721.405 839.25C723.195 837.136 724 836.545 724 837.345ZM286.707 852.238C286.468 853.482 286.263 852.7 286.252 850.5C286.241 848.3 286.437 847.282 286.687 848.238C286.937 849.194 286.946 850.994 286.707 852.238ZM254.742 867.75C254.549 871.462 254.392 868.425 254.392 861C254.392 853.575 254.549 850.538 254.742 854.25C254.934 857.962 254.934 864.038 254.742 867.75ZM576.732 871.25C576.522 873.587 576.349 871.675 576.349 867C576.349 862.325 576.522 860.413 576.732 862.75C576.943 865.087 576.943 868.913 576.732 871.25ZM530.716 872.75C530.487 874.263 530.3 873.025 530.3 870C530.3 866.975 530.487 865.737 530.716 867.25C530.945 868.763 530.945 871.237 530.716 872.75Z" fill="#353638"/>
<path fill-rule="evenodd" clip-rule="evenodd" d="M0 512V1024H512H1024V512V0H512H0V512ZM218.249 505.75C218.11 538.062 217.879 579.125 217.735 597C217.59 614.875 217.366 588.438 217.236 538.25C217.106 488.063 217.338 447 217.75 447C218.162 447 218.387 473.437 218.249 505.75ZM507.748 523.75C507.578 531.313 507.439 525.125 507.439 510C507.439 494.875 507.578 488.688 507.748 496.25C507.917 503.813 507.917 516.188 507.748 523.75ZM498.716 525.75C498.487 527.263 498.3 526.025 498.3 523C498.3 519.975 498.487 518.737 498.716 520.25C498.945 521.763 498.945 524.237 498.716 525.75ZM498.737 555.25C498.535 558.138 498.37 555.775 498.37 550C498.37 544.225 498.535 541.862 498.737 544.75C498.939 547.638 498.939 552.362 498.737 555.25ZM507.707 545.238C507.468 546.482 507.263 545.7 507.252 543.5C507.241 541.3 507.437 540.282 507.687 541.238C507.937 542.194 507.946 543.994 507.707 545.238ZM579.742 560.75C579.549 564.462 579.392 561.425 579.392 554C579.392 546.575 579.549 543.538 579.742 547.25C579.934 550.962 579.934 557.038 579.742 560.75ZM422.662 548.25C422.385 548.938 422.158 548.375 422.158 547C422.158 545.625 422.385 545.063 422.662 545.75C422.94 546.438 422.94 547.563 422.662 548.25ZM290.283 591.12C289.852 591.553 289.723 586.191 289.995 579.204L290.491 566.5L290.779 578.417C290.937 584.971 290.714 590.688 290.283 591.12ZM497.693 584.731C497.439 585.704 497.215 585.15 497.195 583.5C497.175 581.85 497.382 581.054 497.656 581.731C497.93 582.408 497.947 583.758 497.693 584.731ZM578.743 667.75C578.556 672.013 578.402 668.525 578.402 660C578.402 651.475 578.556 647.987 578.743 652.25C578.931 656.513 578.931 663.487 578.743 667.75ZM254.747 862.25C254.574 868.987 254.432 863.475 254.432 850C254.432 836.525 254.574 831.013 254.747 837.75C254.92 844.487 254.92 855.513 254.747 862.25ZM666.729 826.604C666.397 826.936 665.534 826.972 664.813 826.683C664.015 826.364 664.252 826.127 665.417 826.079C666.471 826.036 667.061 826.272 666.729 826.604ZM690.707 831.238C690.468 832.482 690.263 831.7 690.252 829.5C690.241 827.3 690.437 826.282 690.687 827.238C690.937 828.194 690.946 829.994 690.707 831.238ZM576.683 829.188C576.364 829.985 576.127 829.748 576.079 828.583C576.036 827.529 576.272 826.939 576.604 827.271C576.936 827.603 576.972 828.466 576.683 829.188ZM699.662 830.25C699.385 830.938 699.158 830.375 699.158 829C699.158 827.625 699.385 827.063 699.662 827.75C699.94 828.438 699.94 829.563 699.662 830.25ZM822.689 832.75C822.438 833.712 822.232 832.925 822.232 831C822.232 829.075 822.438 828.288 822.689 829.25C822.941 830.212 822.941 831.788 822.689 832.75ZM718 832.345C718 832.535 716.987 833.547 715.75 834.595L713.5 836.5L715.405 834.25C717.195 832.136 718 831.545 718 832.345ZM269.762 833.687C268.806 833.937 267.006 833.946 265.762 833.707C264.518 833.468 265.3 833.263 267.5 833.252C269.7 833.241 270.718 833.437 269.762 833.687ZM769.75 833.742C766.038 833.934 759.962 833.934 756.25 833.742C752.538 833.549 755.575 833.392 763 833.392C770.425 833.392 773.462 833.549 769.75 833.742ZM806.002 853.749L805.505 874.5L805.23 855.029C804.987 837.817 805.203 833.003 806.219 832.999C806.373 832.998 806.276 842.336 806.002 853.749ZM425.662 837.25C425.385 837.938 425.158 837.375 425.158 836C425.158 834.625 425.385 834.063 425.662 834.75C425.94 835.438 425.94 836.563 425.662 837.25ZM434.716 841.75C434.487 843.263 434.3 842.025 434.3 839C434.3 835.975 434.487 834.737 434.716 836.25C434.945 837.763 434.945 840.237 434.716 841.75ZM724 837.313C724 837.485 722.538 838.948 720.75 840.563L717.5 843.5L720.437 840.25C723.175 837.221 724 836.54 724 837.313ZM690.737 853.25C690.535 856.138 690.37 853.775 690.37 848C690.37 842.225 690.535 839.862 690.737 842.75C690.939 845.638 690.939 850.362 690.737 853.25ZM681.689 844.75C681.438 845.712 681.232 844.925 681.232 843C681.232 841.075 681.438 840.288 681.689 841.25C681.941 842.212 681.941 843.788 681.689 844.75ZM530.744 867.25C530.559 871.788 530.407 868.075 530.407 859C530.407 849.925 530.559 846.212 530.744 850.75C530.929 855.288 530.929 862.712 530.744 867.25ZM286.707 852.238C286.468 853.482 286.263 852.7 286.252 850.5C286.241 848.3 286.437 847.282 286.687 848.238C286.937 849.194 286.946 850.994 286.707 852.238ZM772.693 850.731C772.439 851.704 772.215 851.15 772.195 849.5C772.175 847.85 772.382 847.054 772.656 847.731C772.93 848.408 772.947 849.758 772.693 850.731ZM664.729 852.604C664.397 852.936 663.534 852.972 662.813 852.683C662.015 852.364 662.252 852.127 663.417 852.079C664.471 852.036 665.061 852.272 664.729 852.604ZM434.735 869.75C434.529 872.362 434.36 870.225 434.36 865C434.36 859.775 434.529 857.638 434.735 860.25C434.941 862.862 434.941 867.138 434.735 869.75ZM576.732 871.25C576.522 873.587 576.349 871.675 576.349 867C576.349 862.325 576.522 860.413 576.732 862.75C576.943 865.087 576.943 868.913 576.732 871.25ZM690.723 871.25C690.502 873.038 690.32 871.575 690.32 868C690.32 864.425 690.502 862.962 690.723 864.75C690.945 866.538 690.945 869.462 690.723 871.25ZM209.762 875.687C208.806 875.937 207.006 875.946 205.762 875.707C204.518 875.468 205.3 875.263 207.5 875.252C209.7 875.241 210.718 875.437 209.762 875.687ZM377.75 875.745C372.938 875.928 365.063 875.928 360.25 875.745C355.438 875.561 359.375 875.411 369 875.411C378.625 875.411 382.563 875.561 377.75 875.745ZM395.729 875.604C395.397 875.936 394.534 875.972 393.813 875.683C393.015 875.364 393.252 875.127 394.417 875.079C395.471 875.036 396.061 875.272 395.729 875.604ZM728.75 875.689C727.788 875.941 726.212 875.941 725.25 875.689C724.288 875.438 725.075 875.232 727 875.232C728.925 875.232 729.712 875.438 728.75 875.689ZM745.762 875.687C744.806 875.937 743.006 875.946 741.762 875.707C740.518 875.468 741.3 875.263 743.5 875.252C745.7 875.241 746.718 875.437 745.762 875.687Z" fill="#353638"/>
<path fill-rule="evenodd" clip-rule="evenodd" d="M0 512V1024H512H1024V512V0H512H0V512ZM520.412 165.605C521.279 165.937 521.743 166.607 521.442 167.093C521.142 167.579 521.591 167.711 522.44 167.385C523.348 167.036 524.236 167.45 524.596 168.391C524.934 169.269 525.612 169.74 526.105 169.435C526.597 169.131 527 169.385 527 170C527 170.615 527.45 170.84 528 170.5C528.55 170.16 529 170.434 529 171.108C529 171.782 529.29 172.043 529.645 171.688C530.511 170.822 544 177.966 544 179.291C544 179.864 544.279 180.055 544.619 179.714C545.475 178.858 559 185.777 559 187.072C559 187.647 559.414 187.862 559.919 187.55C560.425 187.237 561.448 187.548 562.193 188.241C562.938 188.933 564.087 189.608 564.746 189.741C567.804 190.355 589.912 202.763 589.25 203.494C588.837 203.949 589.026 204.019 589.669 203.651C590.313 203.283 591.438 203.58 592.169 204.312C592.901 205.044 593.762 205.611 594.081 205.571C595.76 205.365 604.836 210.456 604.309 211.309C603.969 211.859 604.171 212.013 604.757 211.65C605.919 210.932 611.983 213.998 611.994 215.309C611.997 215.754 612.45 215.84 613 215.5C613.55 215.16 614 215.385 614 216C614 216.615 614.45 216.84 615 216.5C615.55 216.16 616 216.434 616 217.108C616 217.782 616.292 218.042 616.648 217.685C617.454 216.879 627 221.982 627 223.218C627 223.713 627.45 223.84 628 223.5C628.55 223.16 629 223.385 629 224C629 224.615 629.45 224.84 630 224.5C630.55 224.16 631 224.434 631 225.108C631 225.782 631.292 226.042 631.648 225.685C632.454 224.879 642 229.982 642 231.218C642 231.713 642.45 231.84 643 231.5C643.55 231.16 644 231.385 644 232C644 232.615 644.45 232.84 645 232.5C645.55 232.16 646 232.385 646 233C646 233.615 646.45 233.84 647 233.5C647.55 233.16 648 233.434 648 234.108C648 234.782 648.291 235.042 648.647 234.686C649.506 233.828 661 239.987 661 241.306C661 241.871 661.278 242.055 661.618 241.716C662.475 240.858 680 249.775 680 251.069C680 251.646 680.414 251.862 680.919 251.55C681.425 251.237 682.55 251.693 683.419 252.562C684.289 253.432 685 253.878 685 253.555C685 253.231 687.25 254.106 690 255.5C692.75 256.894 695 258.503 695 259.076C695 259.649 695.414 259.862 695.919 259.55C696.425 259.237 697.534 259.677 698.384 260.527C699.233 261.376 700.189 262.009 700.507 261.932C701.87 261.604 706.926 264.31 706.435 265.105C706.139 265.584 706.591 265.711 707.44 265.385C708.348 265.036 709.236 265.45 709.596 266.391C709.934 267.269 710.576 267.762 711.024 267.485C711.472 267.208 712.448 267.548 713.193 268.241C713.938 268.933 714.987 269.581 715.524 269.68C718.201 270.172 744.914 284.752 744.288 285.379C743.888 285.779 744.331 285.81 745.272 285.449C746.366 285.029 747.204 285.369 747.596 286.391C747.934 287.269 748.612 287.74 749.105 287.435C749.597 287.131 750 287.385 750 288C750 288.615 750.45 288.84 751 288.5C751.55 288.16 752 288.434 752 289.108C752 289.782 752.293 290.04 752.651 289.682C753.009 289.324 753.943 289.812 754.725 290.766C755.508 291.719 755.836 291.893 755.453 291.15C754.894 290.062 755.17 290.021 756.879 290.935C758.046 291.56 759 292.531 759 293.094C759 293.657 759.45 293.84 760 293.5C760.55 293.16 761 293.385 761 294C761 294.615 761.45 294.84 762 294.5C762.55 294.16 763 294.385 763 295C763 295.615 763.45 295.84 764 295.5C764.55 295.16 765 295.385 765 296C765 296.615 765.45 296.84 766 296.5C766.55 296.16 767 296.434 767 297.108C767 297.782 767.281 298.053 767.624 297.71C768.476 296.858 776 300.783 776 302.079C776 302.651 776.45 302.84 777 302.5C777.55 302.16 778 302.385 778 303C778 303.615 778.45 303.84 779 303.5C779.55 303.16 780 303.385 780 304C780 304.615 780.45 304.84 781 304.5C781.55 304.16 782 304.434 782 305.108C782 305.782 782.281 306.053 782.624 305.71C783.476 304.858 791 308.783 791 310.079C791 310.651 791.45 310.84 792 310.5C792.55 310.16 793 310.385 793 311C793 311.615 793.45 311.84 794 311.5C794.55 311.16 795 311.385 795 312C795 312.615 795.45 312.84 796 312.5C796.55 312.16 797 312.359 797 312.941C797 313.523 797.337 313.893 797.75 313.762C798.855 313.412 805 316.123 805 316.961C805 318.052 799.98 320.106 798.918 319.449C798.405 319.132 797.717 319.574 797.388 320.431C797.059 321.288 796.388 321.74 795.895 321.435C795.403 321.131 795 321.385 795 322C795 322.615 794.55 322.84 794 322.5C793.45 322.16 793 322.385 793 323C793 323.615 792.55 323.84 792 323.5C791.45 323.16 791 323.385 791 324C791 324.615 790.55 324.84 790 324.5C789.45 324.16 789 324.385 789 325C789 325.615 788.55 325.84 788 325.5C787.45 325.16 787 325.343 787 325.906C787 326.469 786.046 327.44 784.879 328.065C783.17 328.979 782.894 328.938 783.453 327.85C783.836 327.107 783.508 327.281 782.725 328.234C781.943 329.188 781.009 329.676 780.651 329.318C780.293 328.96 780 329.218 780 329.892C780 330.566 779.55 330.84 779 330.5C778.45 330.16 778 330.385 778 331C778 331.615 777.55 331.84 777 331.5C776.45 331.16 776 331.385 776 332C776 332.615 775.55 332.84 775 332.5C774.45 332.16 774 332.385 774 333C774 333.615 773.55 333.84 773 333.5C772.45 333.16 772 333.262 772 333.725C772 335.126 766.081 338.168 764.843 337.403C764.13 336.962 763.963 337.131 764.405 337.845C765.042 338.876 763.847 339.449 761.75 339.118C761.337 339.053 761 339.477 761 340.059C761 340.641 760.55 340.84 760 340.5C759.45 340.16 759 340.385 759 341C759 341.615 758.55 341.84 758 341.5C757.45 341.16 757 341.385 757 342C757 342.615 756.55 342.84 756 342.5C755.45 342.16 755 342.385 755 343C755 343.615 754.55 343.84 754 343.5C753.45 343.16 753 343.385 753 344C753 344.615 752.55 344.84 752 344.5C751.45 344.16 751 344.385 751 345C751 345.615 750.55 345.84 750 345.5C749.45 345.16 749 345.287 749 345.782C749 347.018 739.454 352.121 738.648 351.315C738.292 350.958 738 351.218 738 351.892C738 352.566 737.55 352.84 737 352.5C736.45 352.16 736 352.385 736 353C736 353.615 735.55 353.84 735 353.5C734.45 353.16 734 353.351 734 353.924C734 355.219 724.476 360.142 723.622 359.288C723.28 358.946 723 359.218 723 359.892C723 360.566 722.55 360.84 722 360.5C721.45 360.16 721 360.385 721 361C721 361.615 720.55 361.84 720 361.5C719.45 361.16 719 361.343 719 361.906C719 362.469 718.046 363.44 716.879 364.065C715.17 364.979 714.894 364.938 715.453 363.85C715.836 363.107 715.503 363.287 714.714 364.25C713.08 366.244 711 366.57 711 364.833C711 364.192 710.707 363.96 710.349 364.318C709.991 364.676 709.057 364.188 708.275 363.234C707.325 362.077 707.067 361.999 707.5 363C707.857 363.825 707.44 363.626 706.574 362.559C705.708 361.491 705 360.94 705 361.335C705 361.729 703.65 361.353 702 360.5C700.35 359.647 699 358.484 699 357.915C699 357.347 698.55 357.16 698 357.5C697.45 357.84 697 357.566 697 356.892C697 356.218 696.719 355.947 696.376 356.29C695.524 357.142 688 353.217 688 351.921C688 351.349 687.55 351.16 687 351.5C686.45 351.84 686 351.615 686 351C686 350.385 685.55 350.16 685 350.5C684.45 350.84 684 350.615 684 350C684 349.385 683.55 349.16 683 349.5C682.45 349.84 682 349.641 682 349.059C682 348.477 681.663 348.107 681.25 348.238C679.846 348.683 674.023 345.772 674.565 344.895C674.861 344.416 674.409 344.289 673.56 344.615C672.652 344.964 671.764 344.55 671.404 343.609C671.066 342.731 670.388 342.26 669.895 342.565C669.403 342.869 669 342.615 669 342C669 341.385 668.55 341.16 668 341.5C667.45 341.84 667 341.615 667 341C667 340.385 666.55 340.16 666 340.5C665.45 340.84 665 340.615 665 340C665 339.385 664.55 339.16 664 339.5C663.45 339.84 663 339.566 663 338.892C663 338.218 662.718 337.949 662.373 338.293C661.525 339.142 656 336.213 656 334.915C656 334.347 655.55 334.16 655 334.5C654.45 334.84 654 334.615 654 334C654 333.385 653.55 333.16 653 333.5C652.45 333.84 652 333.641 652 333.059C652 332.477 651.663 332.107 651.25 332.238C649.695 332.731 644.053 329.724 644.667 328.729C645.022 328.155 644.829 327.988 644.235 328.355C643.644 328.72 642.504 328.361 641.7 327.557C640.896 326.753 639.96 326.374 639.619 326.714C639.279 327.055 639 326.782 639 326.108C639 325.434 638.55 325.16 638 325.5C637.45 325.84 637 325.615 637 325C637 324.385 636.55 324.16 636 324.5C635.45 324.84 635 324.615 635 324C635 323.385 634.55 323.16 634 323.5C633.45 323.84 633 323.641 633 323.059C633 322.477 632.663 322.053 632.25 322.118C630.265 322.432 628.943 321.901 629.493 321.011C629.843 320.446 629.444 320.276 628.56 320.615C627.652 320.964 626.764 320.55 626.404 319.609C626.066 318.731 625.388 318.26 624.895 318.565C624.403 318.869 624 318.641 624 318.059C624 317.477 623.663 317.089 623.25 317.198C621.712 317.605 617.992 315.822 618.537 314.939C618.849 314.435 618.409 314.289 617.56 314.615C616.652 314.964 615.764 314.55 615.404 313.609C615.066 312.731 614.388 312.26 613.895 312.565C613.403 312.869 613 312.615 613 312C613 311.385 612.55 311.16 612 311.5C611.45 311.84 611 311.615 611 311C611 310.385 610.55 310.16 610 310.5C609.45 310.84 609 310.641 609 310.059C609 309.477 608.663 309.053 608.25 309.118C606.265 309.432 604.943 308.901 605.493 308.011C605.843 307.446 605.444 307.276 604.56 307.615C603.652 307.964 602.764 307.55 602.404 306.609C602.066 305.731 601.388 305.26 600.895 305.565C600.403 305.869 600 305.615 600 305C600 304.385 599.55 304.16 599 304.5C598.45 304.84 598 304.566 598 303.892C598 303.218 597.718 302.949 597.373 303.293C596.525 304.142 591 301.213 591 299.915C591 299.347 590.55 299.16 590 299.5C589.45 299.84 589 299.615 589 299C589 298.385 588.55 298.16 588 298.5C587.45 298.84 587 298.615 587 298C587 297.385 586.55 297.16 586 297.5C585.45 297.84 585 297.566 585 296.892C585 296.218 584.721 295.946 584.38 296.287C583.525 297.142 572 291.221 572 289.927C572 289.352 571.55 289.16 571 289.5C570.45 289.84 570 289.615 570 289C570 288.385 569.55 288.16 569 288.5C568.45 288.84 568 288.615 568 288C568 287.385 567.55 287.16 567 287.5C566.45 287.84 566 287.615 566 287C566 286.385 565.566 286.15 565.036 286.477C564.507 286.805 563.194 286.194 562.12 285.12C561.046 284.046 559.904 283.429 559.583 283.75C559.263 284.071 559 283.782 559 283.108C559 282.434 558.55 282.16 558 282.5C557.45 282.84 557 282.641 557 282.059C557 281.477 556.663 281.089 556.25 281.198C554.712 281.605 550.992 279.822 551.537 278.939C551.849 278.435 551.409 278.289 550.56 278.615C549.652 278.964 548.764 278.55 548.404 277.609C548.066 276.731 547.388 276.26 546.895 276.565C546.403 276.869 546 276.615 546 276C546 275.385 545.55 275.16 545 275.5C544.45 275.84 544 275.566 544 274.892C544 274.218 543.707 273.96 543.349 274.318C542.991 274.676 542.057 274.188 541.275 273.234C540.492 272.281 540.164 272.107 540.547 272.85C541.106 273.938 540.83 273.979 539.121 273.065C537.954 272.44 537 271.469 537 270.906C537 270.343 536.55 270.16 536 270.5C535.45 270.84 535 270.615 535 270C535 269.385 534.55 269.16 534 269.5C533.45 269.84 533 269.566 533 268.892C533 268.218 532.719 267.947 532.376 268.29C531.524 269.142 524 265.217 524 263.921C524 263.349 523.55 263.16 523 263.5C522.45 263.84 522 263.615 522 263C522 262.385 521.55 262.16 521 262.5C520.45 262.84 520 262.615 520 262C520 261.385 519.566 261.15 519.037 261.477C518.424 261.856 518.053 244.399 518.019 213.536C517.989 186.841 518.161 165 518.401 165C518.64 165 519.546 165.272 520.412 165.605ZM615 426.393C615 426.609 614.302 427.054 613.448 427.382C612.558 427.723 612.157 427.555 612.507 426.989C613.094 426.038 615 425.583 615 426.393ZM218.249 505.75C218.11 538.062 217.879 579.125 217.735 597C217.59 614.875 217.366 588.438 217.236 538.25C217.106 488.063 217.338 447 217.75 447C218.162 447 218.387 473.437 218.249 505.75ZM659 481.608C659 482.435 657.058 482.903 656.613 482.183C656.324 481.716 656.743 481.333 657.544 481.333C658.345 481.333 659 481.457 659 481.608ZM507.748 523.75C507.578 531.313 507.439 525.125 507.439 510C507.439 494.875 507.578 488.688 507.748 496.25C507.917 503.813 507.917 516.188 507.748 523.75ZM497.683 505.188C497.364 505.985 497.127 505.748 497.079 504.583C497.036 503.529 497.272 502.939 497.604 503.271C497.936 503.603 497.972 504.466 497.683 505.188ZM498.746 549.75C498.569 555.663 498.425 550.825 498.425 539C498.425 527.175 498.569 522.337 498.746 528.25C498.923 534.163 498.923 543.837 498.746 549.75ZM581.595 519.155C582.021 519.843 581.871 520.039 581.226 519.64C580.601 519.254 579.959 519.929 579.708 521.235C579.331 523.195 579.254 523.13 579.136 520.75C578.997 517.939 580.315 517.083 581.595 519.155ZM579.746 557.698C579.566 563.089 579.418 558.95 579.417 548.5C579.416 538.05 579.563 533.639 579.744 538.698C579.925 543.757 579.926 552.307 579.746 557.698ZM507.707 545.238C507.468 546.482 507.263 545.7 507.252 543.5C507.241 541.3 507.437 540.282 507.687 541.238C507.937 542.194 507.946 543.994 507.707 545.238ZM422.693 548.731C422.439 549.704 422.215 549.15 422.195 547.5C422.175 545.85 422.382 545.054 422.656 545.731C422.93 546.408 422.947 547.758 422.693 548.731ZM290.283 591.12C289.852 591.553 289.723 586.191 289.995 579.204L290.491 566.5L290.779 578.417C290.937 584.971 290.714 590.688 290.283 591.12ZM497.706 584.25C497.467 585.487 497.272 584.475 497.272 582C497.272 579.525 497.467 578.513 497.706 579.75C497.944 580.987 497.944 583.013 497.706 584.25ZM811.746 616.698C811.566 622.089 811.418 617.95 811.417 607.5C811.416 597.05 811.563 592.639 811.744 597.698C811.925 602.757 811.926 611.307 811.746 616.698ZM496.662 599.25C496.385 599.938 496.158 599.375 496.158 598C496.158 596.625 496.385 596.063 496.662 596.75C496.94 597.438 496.94 598.563 496.662 599.25ZM290.419 601.606C289.664 601.919 289.456 612.465 289.728 636.654C289.942 655.684 289.873 671.887 289.576 672.662C289.118 673.855 288.576 673.832 286.018 672.509C284.358 671.651 283 670.484 283 669.915C283 669.347 282.55 669.16 282 669.5C281.45 669.84 281 669.615 281 669C281 668.385 280.566 668.15 280.036 668.477C279.507 668.805 278.194 668.194 277.12 667.12C276.046 666.046 274.904 665.429 274.583 665.75C274.263 666.071 274 665.782 274 665.108C274 664.434 273.55 664.16 273 664.5C272.45 664.84 272 664.615 272 664C272 663.385 271.566 663.15 271.036 663.477C270.507 663.805 269.194 663.194 268.12 662.12C267.046 661.046 265.904 660.429 265.583 660.75C265.263 661.071 265 660.782 265 660.108C265 659.434 264.55 659.16 264 659.5C263.45 659.84 263 659.615 263 659C263 658.385 262.55 658.16 262 658.5C261.45 658.84 261 658.566 261 657.892C261 657.218 260.718 656.949 260.373 657.293C259.525 658.142 254 655.213 254 653.915C254 653.347 253.55 653.16 253 653.5C252.45 653.84 252 653.615 252 653C252 652.385 251.566 652.15 251.036 652.477C250.507 652.805 249.194 652.194 248.12 651.12C247.046 650.046 245.904 649.429 245.583 649.75C245.262 650.071 245 649.782 245 649.108C245 648.434 244.55 648.16 244 648.5C243.45 648.84 243 648.615 243 648C243 647.385 242.566 647.15 242.036 647.477C241.507 647.805 240.194 647.194 239.12 646.12C238.046 645.046 236.904 644.429 236.583 644.75C236.262 645.071 236 644.782 236 644.108C236 643.434 235.55 643.16 235 643.5C234.45 643.84 234 643.615 234 643C234 642.385 233.55 642.16 233 642.5C232.45 642.84 232 642.566 232 641.892C232 641.218 231.709 640.958 231.352 641.314C230.611 642.056 223 638.018 223 636.883C223 636.073 227.024 634.478 228.25 634.802C228.662 634.911 229 634.523 229 633.941C229 633.359 229.45 633.16 230 633.5C230.55 633.84 231 633.651 231 633.079C231 632.508 232.847 631.098 235.105 629.947C237.715 628.615 238.962 628.334 238.53 629.176C238.157 629.904 238.492 629.719 239.275 628.766C240.057 627.812 240.991 627.324 241.349 627.682C241.707 628.04 242 627.782 242 627.108C242 626.434 242.45 626.16 243 626.5C243.55 626.84 244 626.615 244 626C244 625.385 244.45 625.16 245 625.5C245.55 625.84 246 625.615 246 625C246 624.385 246.45 624.16 247 624.5C247.55 624.84 248 624.651 248 624.079C248 622.783 255.524 618.858 256.376 619.71C256.719 620.053 257 619.782 257 619.108C257 618.434 257.45 618.16 258 618.5C258.55 618.84 259 618.615 259 618C259 617.385 259.45 617.16 260 617.5C260.55 617.84 261 617.615 261 617C261 616.385 261.45 616.16 262 616.5C262.55 616.84 263 616.615 263 616C263 615.385 263.45 615.16 264 615.5C264.55 615.84 265 615.615 265 615C265 614.385 265.403 614.131 265.895 614.435C266.388 614.74 267.066 614.269 267.404 613.391C267.764 612.45 268.652 612.036 269.56 612.385C270.409 612.711 270.861 612.584 270.565 612.105C270.023 611.228 275.846 608.317 277.25 608.762C277.663 608.893 278 608.523 278 607.941C278 607.359 278.45 607.16 279 607.5C279.55 607.84 280 607.566 280 606.892C280 606.218 280.293 605.96 280.651 606.318C281.009 606.676 281.797 606.326 282.401 605.539C283.006 604.753 284.164 603.973 284.976 603.805C285.788 603.637 287.058 602.938 287.798 602.25C288.538 601.563 289.673 601.036 290.321 601.079C291.092 601.131 291.126 601.313 290.419 601.606ZM495.683 608.188C495.364 608.985 495.127 608.748 495.079 607.583C495.036 606.529 495.272 605.939 495.604 606.271C495.936 606.603 495.972 607.466 495.683 608.188ZM578.747 663.694C578.573 670.187 578.429 665.15 578.429 652.5C578.428 639.85 578.571 634.537 578.746 640.694C578.921 646.85 578.922 657.2 578.747 663.694ZM230.25 826.662C229.563 826.94 228.438 826.94 227.75 826.662C227.063 826.385 227.625 826.158 229 826.158C230.375 826.158 230.938 826.385 230.25 826.662ZM254.747 862.25C254.574 868.987 254.432 863.475 254.432 850C254.432 836.525 254.574 831.013 254.747 837.75C254.92 844.487 254.92 855.513 254.747 862.25ZM352.747 862.25C352.574 868.987 352.432 863.475 352.432 850C352.432 836.525 352.574 831.013 352.747 837.75C352.92 844.487 352.92 855.513 352.747 862.25ZM395.729 826.604C395.397 826.936 394.534 826.972 393.813 826.683C393.015 826.364 393.252 826.127 394.417 826.079C395.471 826.036 396.061 826.272 395.729 826.604ZM522.689 830.75C522.438 831.712 522.232 830.925 522.232 829C522.232 827.075 522.438 826.288 522.689 827.25C522.941 828.212 522.941 829.788 522.689 830.75ZM576.64 828.27C576.74 829.4 576.63 829.511 576.336 828.576C576.078 827.758 574.249 826.926 572.188 826.687L568.5 826.262L572.492 826.381C575.534 826.472 576.521 826.921 576.64 828.27ZM666.269 826.656C665.592 826.93 664.242 826.947 663.269 826.693C662.296 826.439 662.85 826.215 664.5 826.195C666.15 826.175 666.946 826.382 666.269 826.656ZM695.267 875.269L699.5 875.651L694.75 875.825L690 876L690.232 850.75L690.463 825.5L690.749 850.193L691.035 874.887L695.267 875.269ZM696.75 826.689C695.788 826.941 694.212 826.941 693.25 826.689C692.288 826.438 693.075 826.232 695 826.232C696.925 826.232 697.712 826.438 696.75 826.689ZM740.746 857.75C740.569 863.663 740.425 858.825 740.425 847C740.425 835.175 740.569 830.337 740.746 836.25C740.923 842.163 740.923 851.837 740.746 857.75ZM779.689 830.75C779.438 831.712 779.232 830.925 779.232 829C779.232 827.075 779.438 826.288 779.689 827.25C779.941 828.212 779.941 829.788 779.689 830.75ZM823 830V834H814.52H806.04L805.739 855.001L805.439 876.001L805.469 854.751L805.5 833.5L813.75 833.21L822 832.919V829.46C822 827.557 822.225 826 822.5 826C822.775 826 823 827.8 823 830ZM699.662 830.25C699.385 830.938 699.158 830.375 699.158 829C699.158 827.625 699.385 827.063 699.662 827.75C699.94 828.438 699.94 829.563 699.662 830.25ZM721 829.304C721 829.471 719.313 831.158 717.25 833.054L713.5 836.5L716.946 832.75C720.154 829.26 721 828.54 721 829.304ZM282.292 833.739C278.877 833.934 273.027 833.935 269.292 833.742C265.556 833.55 268.35 833.39 275.5 833.389C282.65 833.387 285.706 833.545 282.292 833.739ZM425.598 835.5C425.668 836.915 425.576 837.003 425.286 835.802C424.991 834.584 423.549 833.99 420.187 833.7L415.5 833.296L420.5 833.398C424.764 833.485 425.514 833.794 425.598 835.5ZM443.75 833.745L435 834.078V855.039V876L430.25 875.825L425.5 875.651L429.75 875.268L434 874.885V854.609C434 843.457 434.3 834.033 434.667 833.667C435.033 833.3 439.196 833.093 443.917 833.206L452.5 833.411L443.75 833.745ZM651.25 833.662C650.4 834.005 649.935 837.098 649.796 843.333L649.593 852.5L649.253 844.084C648.885 834.967 649.244 832.957 651.219 833.079C652.222 833.141 652.229 833.267 651.25 833.662ZM660.264 833.704C659.034 833.941 656.784 833.947 655.264 833.718C653.744 833.488 654.75 833.294 657.5 833.286C660.25 833.279 661.494 833.467 660.264 833.704ZM769.206 833.743C765.195 833.934 758.895 833.932 755.206 833.741C751.518 833.549 754.8 833.393 762.5 833.395C770.2 833.396 773.218 833.553 769.206 833.743ZM792.28 833.731C789.959 833.94 785.909 833.943 783.28 833.736C780.651 833.53 782.55 833.358 787.5 833.355C792.45 833.352 794.601 833.521 792.28 833.731ZM234.128 836.75C235.371 838.336 235.336 838.371 233.75 837.128C232.787 836.373 232 835.585 232 835.378C232 834.555 232.821 835.084 234.128 836.75ZM724 837.297C724 837.46 722.087 839.373 719.75 841.547L715.5 845.5L719.453 841.25C723.129 837.298 724 836.54 724 837.297ZM681.689 844.75C681.438 845.712 681.232 844.925 681.232 843C681.232 841.075 681.438 840.288 681.689 841.25C681.941 842.212 681.941 843.788 681.689 844.75ZM236.683 844.188C236.364 844.985 236.127 844.748 236.079 843.583C236.036 842.529 236.272 841.939 236.604 842.271C236.936 842.603 236.972 843.466 236.683 844.188ZM531 859.248L530.5 875.5L526.25 875.807C522.159 876.103 522.005 876.01 522.136 873.307C522.251 870.949 522.342 870.86 522.706 872.75C523.055 874.562 523.807 875 526.57 875H530V859C530 850.2 530.337 842.999 530.75 842.998C531.163 842.997 531.275 850.31 531 859.248ZM286.707 852.238C286.468 853.482 286.263 852.7 286.252 850.5C286.241 848.3 286.437 847.282 286.687 848.238C286.937 849.194 286.946 850.994 286.707 852.238ZM772.707 852.238C772.468 853.482 772.263 852.7 772.252 850.5C772.241 848.3 772.437 847.282 772.687 848.238C772.937 849.194 772.946 850.994 772.707 852.238ZM235 849.378C235 849.585 234.213 850.373 233.25 851.128C231.664 852.371 231.629 852.336 232.872 850.75C234.179 849.084 235 848.555 235 849.378ZM671 849.378C671 849.585 670.212 850.373 669.25 851.128C667.664 852.371 667.629 852.336 668.872 850.75C670.179 849.084 671 848.555 671 849.378ZM402 863.5V876L397.25 875.825L392.5 875.651L396.75 875.268L401 874.885V862.943C401 856.374 401.225 851 401.5 851C401.775 851 402 856.625 402 863.5ZM665.25 852.662C664.563 852.94 663.438 852.94 662.75 852.662C662.063 852.385 662.625 852.158 664 852.158C665.375 852.158 665.938 852.385 665.25 852.662ZM707 854.297C707 854.46 705.087 856.373 702.75 858.547L698.5 862.5L702.453 858.25C706.129 854.298 707 853.54 707 854.297ZM576.732 871.25C576.522 873.587 576.349 871.675 576.349 867C576.349 862.325 576.522 860.413 576.732 862.75C576.943 865.087 576.943 868.913 576.732 871.25ZM649.723 873.25C649.502 875.038 649.32 873.575 649.32 870C649.32 866.425 649.502 864.962 649.723 866.75C649.945 868.538 649.945 871.462 649.723 873.25ZM284.206 868.743C280.195 868.934 273.895 868.932 270.206 868.741C266.518 868.549 269.8 868.393 277.5 868.395C285.2 868.396 288.218 868.553 284.206 868.743ZM386.81 871.75L386.5 875.5L369.249 875.536L351.998 875.573L368.999 875.263L386 874.953V872.007V869.062L373.75 868.747L361.5 868.432L374.31 868.216L387.121 868L386.81 871.75ZM768.75 868.742C765.038 868.934 758.962 868.934 755.25 868.742C751.538 868.549 754.575 868.392 762 868.392C769.425 868.392 772.462 868.549 768.75 868.742ZM550.25 871.662C549.563 871.94 548.438 871.94 547.75 871.662C547.063 871.385 547.625 871.158 549 871.158C550.375 871.158 550.938 871.385 550.25 871.662ZM673.128 874.75C674.371 876.336 674.336 876.371 672.75 875.128C671.084 873.821 670.555 873 671.378 873C671.585 873 672.373 873.788 673.128 874.75ZM303.5 875C303.16 875.55 300.771 875.929 298.191 875.843L293.5 875.686L298.5 875C301.25 874.623 303.639 874.244 303.809 874.157C303.979 874.071 303.84 874.45 303.5 875ZM347 875C347 875.55 344.863 875.932 342.25 875.85L337.5 875.7L342 875C344.475 874.615 346.613 874.233 346.75 874.15C346.887 874.068 347 874.45 347 875ZM733.5 875C733.16 875.55 730.771 875.929 728.191 875.843L723.5 875.686L728.5 875C731.25 874.623 733.639 874.244 733.809 874.157C733.979 874.071 733.84 874.45 733.5 875ZM211.264 875.704C210.034 875.941 207.784 875.947 206.264 875.718C204.744 875.488 205.75 875.294 208.5 875.286C211.25 875.279 212.494 875.467 211.264 875.704ZM242.25 875.706C241.012 875.944 238.988 875.944 237.75 875.706C236.512 875.467 237.525 875.272 240 875.272C242.475 875.272 243.488 875.467 242.25 875.706ZM282.25 875.745C277.162 875.927 268.837 875.927 263.75 875.745C258.662 875.564 262.825 875.415 273 875.415C283.175 875.415 287.337 875.564 282.25 875.745ZM478.25 875.706C477.012 875.944 474.988 875.944 473.75 875.706C472.512 875.467 473.525 875.272 476 875.272C478.475 875.272 479.488 875.467 478.25 875.706ZM573.762 875.687C572.806 875.937 571.006 875.946 569.762 875.707C568.518 875.468 569.3 875.263 571.5 875.252C573.7 875.241 574.718 875.437 573.762 875.687ZM589.264 875.704C588.034 875.941 585.784 875.947 584.264 875.718C582.744 875.488 583.75 875.294 586.5 875.286C589.25 875.279 590.494 875.467 589.264 875.704ZM644.25 875.662C643.563 875.94 642.438 875.94 641.75 875.662C641.063 875.385 641.625 875.158 643 875.158C644.375 875.158 644.938 875.385 644.25 875.662ZM681.25 875.706C680.013 875.944 677.987 875.944 676.75 875.706C675.513 875.467 676.525 875.272 679 875.272C681.475 875.272 682.487 875.467 681.25 875.706ZM768.302 875.744C763.243 875.925 754.693 875.926 749.302 875.746C743.911 875.566 748.05 875.418 758.5 875.417C768.95 875.416 773.361 875.563 768.302 875.744Z" fill="#353638"/>
<path fill-rule="evenodd" clip-rule="evenodd" d="M0 512V1024H512H1024V512V0H512H0V512ZM507 165.474C507 165.735 505.65 166.647 504 167.5C500.239 169.445 500.012 168.6 503.75 166.572C506.893 164.867 507 164.831 507 165.474ZM549.718 181.352C566.648 190.346 600.3 208.175 624.5 220.971C682.94 251.872 734.515 279.209 756 290.671C765.625 295.805 780.578 303.718 789.23 308.253C797.881 312.789 804.955 316.725 804.95 317C804.945 317.275 795.428 322.45 783.802 328.5C772.175 334.55 751.463 345.462 737.776 352.75C724.089 360.038 712.622 366 712.293 366C711.965 366 708.277 364.039 704.098 361.642C699.919 359.245 682.325 349.737 665 340.513C647.675 331.289 622.475 317.798 609 310.533C595.525 303.268 569.54 289.264 551.255 279.412L518.009 261.5L518.005 213.25C518.002 186.712 518.211 165 518.468 165C518.726 165 532.788 172.359 549.718 181.352ZM486 176.48C486 176.743 484.2 177.878 482 179C479.8 180.122 478 180.817 478 180.544C478 180.271 479.688 179.157 481.75 178.068C485.993 175.828 486 175.826 486 176.48ZM451 194.465C451 194.72 449.988 195.42 448.75 196.02C446.589 197.067 446.577 197.049 448.441 195.555C450.481 193.921 451 193.7 451 194.465ZM432 204.465C432 204.72 430.988 205.42 429.75 206.02C427.589 207.067 427.577 207.049 429.441 205.555C431.481 203.921 432 203.7 432 204.465ZM351 246.48C351 246.743 349.2 247.878 347 249C344.8 250.122 343 250.817 343 250.544C343 250.271 344.688 249.157 346.75 248.068C350.993 245.828 351 245.826 351 246.48ZM324 260.465C324 260.72 322.988 261.42 321.75 262.02C319.589 263.067 319.577 263.049 321.441 261.555C323.481 259.921 324 259.7 324 260.465ZM493 269.465C493 269.72 491.988 270.42 490.75 271.02C488.589 272.067 488.577 272.049 490.441 270.555C492.481 268.921 493 268.7 493 269.465ZM472 280.465C472 280.72 470.988 281.42 469.75 282.02C467.589 283.067 467.577 283.049 469.441 281.555C471.481 279.921 472 279.7 472 280.465ZM278 284.465C278 284.72 276.988 285.42 275.75 286.02C273.589 287.067 273.577 287.049 275.441 285.555C277.481 283.921 278 283.7 278 284.465ZM451 291.465C451 291.72 449.988 292.42 448.75 293.02C446.589 294.067 446.577 294.049 448.441 292.555C450.481 290.921 451 290.7 451 291.465ZM253 297.465C253 297.72 251.988 298.42 250.75 299.02C248.589 300.067 248.577 300.049 250.441 298.555C252.481 296.921 253 296.7 253 297.465ZM225 317.594C225 317.794 223.875 317.445 222.5 316.818C221.125 316.192 220 315.291 220 314.816C220 314.342 221.125 314.691 222.5 315.592C223.875 316.493 225 317.394 225 317.594ZM234 322.57C234 322.845 233.1 322.589 232 322C230.9 321.411 230 320.705 230 320.43C230 320.155 230.9 320.411 232 321C233.1 321.589 234 322.295 234 322.57ZM215.526 322.807C215.219 323.115 214.412 322.808 213.733 322.124C212.753 321.136 212.868 321.022 214.293 321.564C215.279 321.94 215.834 322.499 215.526 322.807ZM390 323.465C390 323.72 388.988 324.42 387.75 325.02C385.589 326.067 385.577 326.049 387.441 324.555C389.481 322.921 390 322.7 390 323.465ZM247 329.57C247 329.845 246.1 329.589 245 329C243.9 328.411 243 327.705 243 327.43C243 327.155 243.9 327.411 245 328C246.1 328.589 247 329.295 247 329.57ZM230 330.57C230 330.845 229.1 330.589 228 330C226.9 329.411 226 328.705 226 328.43C226 328.155 226.9 328.411 228 329C229.1 329.589 230 330.295 230 330.57ZM780 340.465C780 340.72 778.987 341.42 777.75 342.02C775.589 343.067 775.577 343.049 777.441 341.555C779.481 339.921 780 339.7 780 340.465ZM765 348.465C765 348.72 763.987 349.42 762.75 350.02C760.589 351.067 760.577 351.049 762.441 349.555C764.481 347.921 765 347.7 765 348.465ZM325 357.465C325 357.72 323.988 358.42 322.75 359.02C320.589 360.067 320.577 360.049 322.441 358.555C324.481 356.921 325 356.7 325 357.465ZM746 358.465C746 358.72 744.987 359.42 743.75 360.02C741.589 361.067 741.577 361.049 743.441 359.555C745.481 357.921 746 357.7 746 358.465ZM308 373.57C308 373.845 307.1 373.589 306 373C304.9 372.411 304 371.705 304 371.43C304 371.155 304.9 371.411 306 372C307.1 372.589 308 373.295 308 373.57ZM697.122 394.675C695.943 396.702 695.659 396.053 696.624 393.539C696.966 392.645 697.458 392.124 697.715 392.382C697.973 392.639 697.706 393.671 697.122 394.675ZM364 404.57C364 404.845 363.1 404.589 362 404C360.9 403.411 360 402.705 360 402.43C360 402.155 360.9 402.411 362 403C363.1 403.589 364 404.295 364 404.57ZM227 413.57C227 413.845 226.1 413.589 225 413C223.9 412.411 223 411.705 223 411.43C223 411.155 223.9 411.411 225 412C226.1 412.589 227 413.295 227 413.57ZM380 413.57C380 413.845 379.1 413.589 378 413C376.9 412.411 376 411.705 376 411.43C376 411.155 376.9 411.411 378 412C379.1 412.589 380 413.295 380 413.57ZM400 424.57C400 424.845 399.1 424.589 398 424C396.9 423.411 396 422.705 396 422.43C396 422.155 396.9 422.411 398 423C399.1 423.589 400 424.295 400 424.57ZM615 426.393C615 426.609 614.302 427.054 613.448 427.382C612.558 427.723 612.157 427.555 612.507 426.989C613.094 426.038 615 425.583 615 426.393ZM259 431.57C259 431.845 258.1 431.589 257 431C255.9 430.411 255 429.705 255 429.43C255 429.155 255.9 429.411 257 430C258.1 430.589 259 431.295 259 431.57ZM621.128 434.75C622.371 436.336 622.336 436.371 620.75 435.128C619.788 434.373 619 433.585 619 433.378C619 432.555 619.821 433.084 621.128 434.75ZM744.763 488.75L744.526 544.5L744 489.5C743.711 459.25 743.368 435.137 743.237 435.917C743.107 436.696 742.711 437.044 742.357 436.691C741.781 436.115 743.693 433 744.622 433C744.83 433 744.893 458.087 744.763 488.75ZM624.128 438.75C625.371 440.336 625.336 440.371 623.75 439.128C622.788 438.373 622 437.585 622 437.378C622 436.555 622.821 437.084 624.128 438.75ZM586 441.474C586 441.735 584.65 442.647 583 443.5C579.239 445.445 579.012 444.6 582.75 442.572C585.893 440.867 586 440.831 586 441.474ZM286 446.57C286 446.845 285.1 446.589 284 446C282.9 445.411 282 444.705 282 444.43C282 444.155 282.9 444.411 284 445C285.1 445.589 286 446.295 286 446.57ZM811.255 631.145C810.84 631.56 810.725 589.51 811 537.7L811.5 443.5L811.755 536.945C811.895 588.339 811.671 630.73 811.255 631.145ZM219.595 448.155C220.036 448.868 219.87 449.038 219.16 448.599C218.298 448.066 217.945 470.609 217.75 538.694L217.489 629.5L217.245 538.25C217.093 481.725 217.358 447 217.941 447C218.459 447 219.203 447.52 219.595 448.155ZM295 451.57C295 451.845 294.1 451.589 293 451C291.9 450.411 291 449.705 291 449.43C291 449.155 291.9 449.411 293 450C294.1 450.589 295 451.295 295 451.57ZM634.128 451.75C635.371 453.336 635.336 453.371 633.75 452.128C632.788 451.373 632 450.585 632 450.378C632 449.555 632.821 450.084 634.128 451.75ZM565 452.465C565 452.72 563.987 453.42 562.75 454.02C560.589 455.067 560.577 455.049 562.441 453.555C564.481 451.921 565 451.7 565 452.465ZM637.128 455.75C638.371 457.336 638.336 457.371 636.75 456.128C635.788 455.373 635 454.585 635 454.378C635 453.555 635.821 454.084 637.128 455.75ZM460 457.57C460 457.845 459.1 457.589 458 457C456.9 456.411 456 455.705 456 455.43C456 455.155 456.9 455.411 458 456C459.1 456.589 460 457.295 460 457.57ZM331 471.57C331 471.845 330.1 471.589 329 471C327.9 470.411 327 469.705 327 469.43C327 469.155 327.9 469.411 329 470C330.1 470.589 331 471.295 331 471.57ZM481.128 470.75C482.371 472.336 482.336 472.371 480.75 471.128C479.084 469.821 478.555 469 479.378 469C479.585 469 480.373 469.788 481.128 470.75ZM650.128 472.75C651.371 474.336 651.336 474.371 649.75 473.128C648.788 472.373 648 471.585 648 471.378C648 470.555 648.821 471.084 650.128 472.75ZM527 472.465C527 472.72 525.987 473.42 524.75 474.02C522.589 475.067 522.577 475.049 524.441 473.555C526.481 471.921 527 471.7 527 472.465ZM489.128 478.75C490.371 480.336 490.336 480.371 488.75 479.128C487.084 477.821 486.555 477 487.378 477C487.585 477 488.373 477.788 489.128 478.75ZM658.502 481.241C658.952 480.834 658.983 481.084 658.571 481.799C657.994 482.799 657.498 482.828 656.411 481.926C655.635 481.282 655 480.53 655 480.255C655 479.98 655.604 480.256 656.342 480.869C657.08 481.481 658.052 481.649 658.502 481.241ZM507.748 523.75C507.578 531.313 507.439 525.125 507.439 510C507.439 494.875 507.578 488.688 507.748 496.25C507.917 503.813 507.917 516.188 507.748 523.75ZM716.122 496.675C714.943 498.702 714.659 498.053 715.624 495.539C715.966 494.645 716.458 494.124 716.715 494.382C716.973 494.639 716.706 495.671 716.122 496.675ZM309 498.57C309 498.845 308.1 498.589 307 498C305.9 497.411 305 496.705 305 496.43C305 496.155 305.9 496.411 307 497C308.1 497.589 309 498.295 309 498.57ZM496.683 498.188C496.364 498.985 496.127 498.748 496.079 497.583C496.036 496.529 496.272 495.939 496.604 496.271C496.936 496.603 496.972 497.466 496.683 498.188ZM318 503.57C318 503.845 317.1 503.589 316 503C314.9 502.411 314 501.705 314 501.43C314 501.155 314.9 501.411 316 502C317.1 502.589 318 503.295 318 503.57ZM497.689 507.75C497.438 508.712 497.232 507.925 497.232 506C497.232 504.075 497.438 503.288 497.689 504.25C497.941 505.212 497.941 506.788 497.689 507.75ZM394 506.57C394 506.845 393.1 506.589 392 506C390.9 505.411 390 504.705 390 504.43C390 504.155 390.9 504.411 392 505C393.1 505.589 394 506.295 394 506.57ZM581.595 519.233C583.105 521.003 583.141 521.188 581.768 520.125C580.138 518.864 580.019 520.216 579.749 543.143L579.463 567.5L579.231 542.25C579.104 528.362 579.155 517 579.345 517C579.535 517 580.547 518.005 581.595 519.233ZM498.746 549.75C498.569 555.663 498.425 550.825 498.425 539C498.425 527.175 498.569 522.337 498.746 528.25C498.923 534.163 498.923 543.837 498.746 549.75ZM418.5 521C419.495 522.1 420.085 523 419.81 523C419.535 523 418.495 522.1 417.5 521C416.505 519.9 415.915 519 416.19 519C416.465 519 417.505 519.9 418.5 521ZM589.128 528.75C590.371 530.336 590.336 530.371 588.75 529.128C587.084 527.821 586.555 527 587.378 527C587.585 527 588.373 527.788 589.128 528.75ZM422.683 530.188C422.364 530.985 422.127 530.748 422.079 529.583C422.036 528.529 422.272 527.939 422.604 528.271C422.936 528.603 422.972 529.466 422.683 530.188ZM596.128 537.75C597.371 539.336 597.336 539.371 595.75 538.128C594.084 536.821 593.555 536 594.378 536C594.585 536 595.373 536.788 596.128 537.75ZM507.707 545.238C507.468 546.482 507.263 545.7 507.252 543.5C507.241 541.3 507.437 540.282 507.687 541.238C507.937 542.194 507.946 543.994 507.707 545.238ZM695.122 543.675C693.943 545.702 693.659 545.053 694.624 542.539C694.966 541.645 695.458 541.124 695.715 541.382C695.973 541.639 695.706 542.671 695.122 543.675ZM422.707 550.238C422.468 551.482 422.263 550.7 422.252 548.5C422.241 546.3 422.437 545.282 422.687 546.238C422.937 547.194 422.946 548.994 422.707 550.238ZM603.128 546.75C604.371 548.336 604.336 548.371 602.75 547.128C601.084 545.821 600.555 545 601.378 545C601.585 545 602.373 545.788 603.128 546.75ZM610.128 555.75C611.371 557.336 611.336 557.371 609.75 556.128C608.084 554.821 607.555 554 608.378 554C608.585 554 609.373 554.788 610.128 555.75ZM744.735 570.75C744.529 573.362 744.36 571.225 744.36 566C744.36 560.775 744.529 558.638 744.735 561.25C744.941 563.862 744.941 568.138 744.735 570.75ZM417.729 558.604C417.397 558.936 416.534 558.972 415.813 558.683C415.015 558.364 415.252 558.127 416.417 558.079C417.471 558.036 418.061 558.272 417.729 558.604ZM617.128 564.75C618.371 566.336 618.336 566.371 616.75 565.128C615.788 564.373 615 563.585 615 563.378C615 562.555 615.821 563.084 617.128 564.75ZM290.282 591.121C289.852 591.553 289.723 585.965 289.996 578.704L290.491 565.5L290.778 577.918C290.935 584.748 290.712 590.689 290.282 591.121ZM620.128 568.75C621.371 570.336 621.336 570.371 619.75 569.128C618.084 567.821 617.555 567 618.378 567C618.585 567 619.373 567.788 620.128 568.75ZM497.73 582.728C497.513 584.802 497.333 583.35 497.328 579.5C497.324 575.65 497.501 573.952 497.722 575.728C497.943 577.503 497.946 580.653 497.73 582.728ZM654 575.465C654 575.72 652.987 576.42 651.75 577.02C649.589 578.067 649.577 578.049 651.441 576.555C653.481 574.921 654 574.7 654 575.465ZM630.128 581.75C631.371 583.336 631.336 583.371 629.75 582.128C628.084 580.821 627.555 580 628.378 580C628.585 580 629.373 580.788 630.128 581.75ZM744.73 599.728C744.513 601.802 744.333 600.35 744.328 596.5C744.324 592.65 744.501 590.952 744.722 592.728C744.943 594.503 744.946 597.653 744.73 599.728ZM496.689 598.75C496.438 599.712 496.232 598.925 496.232 597C496.232 595.075 496.438 594.288 496.689 595.25C496.941 596.212 496.941 597.788 496.689 598.75ZM290.206 637.21C290.045 657.126 289.74 673.593 289.53 673.803C289.32 674.013 283.152 670.837 275.824 666.745C257.27 656.385 234.499 643.814 228.25 640.482C225.363 638.942 223.002 637.416 223.003 637.091C223.006 636.571 288.726 601.23 290 601.064C290.275 601.028 290.368 617.294 290.206 637.21ZM578.748 657.815C578.585 667.542 578.451 659.3 578.451 639.5C578.452 619.7 578.586 611.742 578.749 621.815C578.912 631.888 578.912 648.088 578.748 657.815ZM495.662 608.25C495.385 608.938 495.158 608.375 495.158 607C495.158 605.625 495.385 605.063 495.662 605.75C495.94 606.438 495.94 607.563 495.662 608.25ZM259 607.465C259 607.72 257.988 608.42 256.75 609.02C254.589 610.067 254.577 610.049 256.441 608.555C258.481 606.921 259 606.7 259 607.465ZM494.662 615.25C494.385 615.938 494.158 615.375 494.158 614C494.158 612.625 494.385 612.063 494.662 612.75C494.94 613.438 494.94 614.563 494.662 615.25ZM493.683 620.188C493.364 620.985 493.127 620.748 493.079 619.583C493.036 618.529 493.272 617.939 493.604 618.271C493.936 618.603 493.972 619.466 493.683 620.188ZM405.987 624.971C407.156 625.71 406.996 625.875 405.237 625.743C404.007 625.65 403 625.22 403 624.787C403 623.744 404.159 623.815 405.987 624.971ZM486 640.326C486 640.505 484.762 641.742 483.25 643.076L480.5 645.5L482.924 642.75C485.19 640.18 486 639.541 486 640.326ZM791 641.48C791 641.743 789.2 642.878 787 644C784.8 645.122 783 645.817 783 645.544C783 645.271 784.688 644.157 786.75 643.068C790.993 640.828 791 640.826 791 641.48ZM462.729 648.604C462.397 648.936 461.534 648.972 460.813 648.683C460.015 648.364 460.252 648.127 461.417 648.079C462.471 648.036 463.061 648.272 462.729 648.604ZM473.729 648.604C473.397 648.936 472.534 648.972 471.813 648.683C471.015 648.364 471.252 648.127 472.417 648.079C473.471 648.036 474.061 648.272 473.729 648.604ZM766 654.465C766 654.72 764.987 655.42 763.75 656.02C761.589 657.067 761.577 657.049 763.441 655.555C765.481 653.921 766 653.7 766 654.465ZM577.281 752.122C576.852 752.554 576.723 746.74 576.996 739.203L577.492 725.5L577.777 738.419C577.934 745.524 577.711 751.691 577.281 752.122ZM430 747.57C430 747.845 429.1 747.589 428 747C426.9 746.411 426 745.705 426 745.43C426 745.155 426.9 745.411 428 746C429.1 746.589 430 747.295 430 747.57ZM549 766.465C549 766.72 547.987 767.42 546.75 768.02C544.589 769.067 544.577 769.049 546.441 767.555C548.481 765.921 549 765.7 549 766.465ZM508.718 783.736C508.488 785.256 508.294 784.25 508.286 781.5C508.279 778.75 508.467 777.506 508.704 778.736C508.941 779.966 508.947 782.216 508.718 783.736ZM510.5 787C510.16 787.55 509.346 787.993 508.691 787.985C507.975 787.975 508.099 787.582 509 787C510.921 785.758 511.267 785.758 510.5 787ZM218.268 826.747L205.036 827.058L204.749 850.779L204.462 874.5L204.231 850.25L204 826L217.75 826.218L231.5 826.437L218.268 826.747ZM254.747 862.25C254.574 868.987 254.432 863.475 254.432 850C254.432 836.525 254.574 831.013 254.747 837.75C254.92 844.487 254.92 855.513 254.747 862.25ZM281.75 826.745C276.938 826.928 269.063 826.928 264.25 826.745C259.438 826.561 263.375 826.411 273 826.411C282.625 826.411 286.563 826.561 281.75 826.745ZM325.541 827.067C326.567 828.727 325.646 828.957 324.211 827.399C323.501 826.63 323.362 826 323.902 826C324.441 826 325.179 826.48 325.541 827.067ZM357.25 826.732L353 827.115V851.057V875H369.5H386V872.03V869.06L373.25 868.747L360.5 868.435L373.81 868.217L387.121 868L386.81 871.75L386.5 875.5L369.25 875.774L352 876.047V851.024V826L356.75 826.175L361.5 826.349L357.25 826.732ZM402 851V876L397.25 875.825L392.5 875.651L396.75 875.268L401 874.885V851V827.115L396.75 826.732L392.5 826.349L397.25 826.175L402 826V851ZM451.864 828.75C451.747 831.108 451.666 831.179 451.294 829.25C450.861 827.002 450.841 827 429.93 827H409V830V833H417.5H426L425.864 835.75C425.747 838.108 425.666 838.179 425.294 836.25C424.886 834.129 424.378 834 416.43 834H408V830V826H430H452L451.864 828.75ZM462.345 826.75C462.6 827.163 460.645 827.5 458 827.5C455.355 827.5 453.4 827.163 453.655 826.75C453.909 826.337 455.865 826 458 826C460.135 826 462.091 826.337 462.345 826.75ZM500 826.799C500 827.239 498.313 827.438 496.25 827.242C489.819 826.63 489.295 826.237 494.75 826.116C497.637 826.052 500 826.36 500 826.799ZM530.357 826.768C530.618 827.191 529.07 827.369 526.916 827.163L523 826.79V850.895V875H526.5H530V859C530 850.2 530.337 842.999 530.75 842.998C531.163 842.997 531.275 850.31 531 859.248L530.5 875.5L526.25 875.807L522 876.115V851.057V826H525.941C528.109 826 530.096 826.346 530.357 826.768ZM576.64 828.27C576.74 829.4 576.63 829.511 576.336 828.576C576.078 827.758 574.249 826.926 572.188 826.687L568.5 826.262L572.492 826.381C575.534 826.472 576.521 826.921 576.64 828.27ZM660.75 826.742C657.038 826.934 650.962 826.934 647.25 826.742C643.538 826.549 646.575 826.392 654 826.392C661.425 826.392 664.462 826.549 660.75 826.742ZM699.598 828.5C699.673 830.022 699.597 830.082 699.279 828.75C698.969 827.451 697.848 827 694.93 827H691V850.943V874.885L695.25 875.268L699.5 875.651L694.75 875.825L690 876V850.945V825.89L694.75 826.195C698.691 826.448 699.517 826.84 699.598 828.5ZM734 826.326C734 826.505 732.766 827.742 731.257 829.076C728.787 831.259 728.703 831.276 730.412 829.25L732.31 827H727.939C724.098 827 722.958 827.576 718.534 831.75L713.5 836.5L718.462 831.25C723.232 826.204 723.631 826 728.712 826C731.621 826 734 826.147 734 826.326ZM758.75 826.748L741 827.046V851.023V875H758.5H776V872.028V869.056L762.25 868.748L748.5 868.439L762.75 868.219L777 868V872V876H758.5H740V851V826L758.25 826.225L776.5 826.451L758.75 826.748ZM823 830V834H814.5H806V855V876L801.25 875.825L796.5 875.651L800.75 875.268L805 874.885V853.943V833H813.5H822V830V827H801H780V829.961V832.922L788.75 833.255L797.5 833.589L788.25 833.794L779 834V830V826H801H823V830ZM775.683 830.188C775.364 830.985 775.127 830.748 775.079 829.583C775.036 828.529 775.272 827.939 775.604 828.271C775.936 828.603 775.972 829.466 775.683 830.188ZM241.5 832C242.495 833.1 243.085 834 242.81 834C242.535 834 241.495 833.1 240.5 832C239.505 830.9 238.915 830 239.19 830C239.465 830 240.505 830.9 241.5 832ZM220.25 833.743L213 834.088L212.794 843.794L212.589 853.5L212.253 844.579C212.068 839.673 212.147 835.06 212.427 834.329C212.797 833.365 214.939 833.055 220.219 833.199L227.5 833.397L220.25 833.743ZM283.206 833.743C279.195 833.934 272.895 833.932 269.206 833.741C265.518 833.549 268.8 833.393 276.5 833.395C284.2 833.396 287.218 833.553 283.206 833.743ZM443.75 833.745L435 834.078V855.039V876L430.25 875.825L425.5 875.651L429.75 875.268L434 874.885V854.609C434 843.457 434.3 834.033 434.667 833.667C435.033 833.3 439.196 833.093 443.917 833.206L452.5 833.411L443.75 833.745ZM657.25 833.743L650 834.088L649.794 843.794L649.589 853.5L649.253 844.579C649.068 839.673 649.147 835.06 649.427 834.329C649.797 833.365 651.939 833.055 657.219 833.199L664.5 833.397L657.25 833.743ZM679.807 835.526C679.499 835.834 678.94 835.279 678.564 834.293C678.022 832.868 678.136 832.753 679.124 833.733C679.808 834.412 680.115 835.219 679.807 835.526ZM769.206 833.743C765.195 833.934 758.895 833.932 755.206 833.741C751.518 833.549 754.8 833.393 762.5 833.395C770.2 833.396 773.218 833.553 769.206 833.743ZM329.969 837.5C329.969 838.05 329.533 837.825 329 837C328.467 836.175 328.031 835.05 328.031 834.5C328.031 833.95 328.467 834.175 329 835C329.533 835.825 329.969 836.95 329.969 837.5ZM600.122 836.675C598.943 838.702 598.659 838.053 599.624 835.539C599.966 834.645 600.458 834.124 600.715 834.382C600.973 834.639 600.706 835.671 600.122 836.675ZM234.5 837C235.495 838.1 236.085 839 235.81 839C235.535 839 234.495 838.1 233.5 837C232.505 835.9 231.915 835 232.19 835C232.465 835 233.505 835.9 234.5 837ZM321.985 837.309C321.975 838.025 321.582 837.901 321 837C320.202 835.765 320.028 835.75 320.015 836.917C320.007 837.696 319.73 838.063 319.4 837.733C318.502 836.835 319.993 834.878 321.069 835.543C321.581 835.859 321.993 836.654 321.985 837.309ZM724 837.284C724 837.44 721.413 840.028 718.25 843.034L712.5 848.5L717.966 842.75C723.044 837.408 724 836.542 724 837.284ZM561 841C560.411 842.1 559.705 843 559.43 843C559.155 843 559.411 842.1 560 841C560.589 839.9 561.295 839 561.57 839C561.845 839 561.589 839.9 561 841ZM672.683 841.188C672.364 841.985 672.127 841.748 672.079 840.583C672.036 839.529 672.272 838.939 672.604 839.271C672.936 839.603 672.972 840.466 672.683 841.188ZM681.689 844.75C681.438 845.712 681.232 844.925 681.232 843C681.232 841.075 681.438 840.288 681.689 841.25C681.941 842.212 681.941 843.788 681.689 844.75ZM236.693 844.731C236.439 845.704 236.215 845.15 236.195 843.5C236.175 841.85 236.382 841.054 236.656 841.731C236.93 842.408 236.947 843.758 236.693 844.731ZM710 841.284C710 841.44 707.413 844.028 704.25 847.034L698.5 852.5L703.966 846.75C709.044 841.408 710 840.542 710 841.284ZM569 859V875H572.46H575.919L576.274 866.997L576.629 858.994L576.565 867.247L576.5 875.5L572.297 875.805L568.094 876.11L567.797 859.554C567.634 850.448 567.837 842.998 568.25 842.999C568.663 842.999 569 850.2 569 859ZM672.683 846.188C672.364 846.985 672.127 846.748 672.079 845.583C672.036 844.529 672.272 843.939 672.604 844.271C672.936 844.603 672.972 845.466 672.683 846.188ZM287 850.5V854L274.75 853.785L262.5 853.57L274.25 853.253L286 852.937V849.968C286 848.336 286.225 847 286.5 847C286.775 847 287 848.575 287 850.5ZM773 850.5V854L760.75 853.785L748.5 853.57L760.25 853.253L772 852.937V849.968C772 848.336 772.225 847 772.5 847C772.775 847 773 848.575 773 850.5ZM236 848.345C236 848.535 234.988 849.547 233.75 850.595L231.5 852.5L233.405 850.25C235.195 848.136 236 847.545 236 848.345ZM672 848.345C672 848.535 670.987 849.547 669.75 850.595L667.5 852.5L669.405 850.25C671.195 848.136 672 847.545 672 848.345ZM477.5 850C477.16 850.55 476.346 850.993 475.691 850.985C474.975 850.975 475.099 850.582 476 850C477.921 848.758 478.267 848.758 477.5 850ZM243.124 852.267C242.136 853.247 242.022 853.132 242.564 851.707C242.94 850.721 243.499 850.166 243.807 850.474C244.115 850.781 243.808 851.588 243.124 852.267ZM230.729 852.604C230.397 852.936 229.534 852.972 228.813 852.683C228.015 852.364 228.252 852.127 229.417 852.079C230.471 852.036 231.061 852.272 230.729 852.604ZM666.269 852.656C665.592 852.93 664.242 852.947 663.269 852.693C662.296 852.439 662.85 852.215 664.5 852.195C666.15 852.175 666.946 852.382 666.269 852.656ZM241 854.378C241 854.585 240.213 855.373 239.25 856.128C237.664 857.371 237.629 857.336 238.872 855.75C240.179 854.084 241 853.555 241 854.378ZM707 854.297C707 854.46 705.087 856.373 702.75 858.547L698.5 862.5L702.453 858.25C706.129 854.298 707 853.54 707 854.297ZM321.533 857.252L330.5 857.589L320.75 857.794C312.048 857.978 311.002 857.812 311.015 856.25C311.026 855.052 311.273 854.881 311.798 855.708C312.276 856.459 315.954 857.043 321.533 857.252ZM720.128 856.75C721.371 858.336 721.336 858.371 719.75 857.128C718.084 855.821 717.555 855 718.378 855C718.585 855 719.373 855.788 720.128 856.75ZM615.5 857.366C617.15 857.539 614.112 857.752 608.75 857.84C603.388 857.928 598.999 857.663 598.998 857.25C598.996 856.559 608.419 856.625 615.5 857.366ZM481.345 858.543C481.019 859.392 480.538 859.872 480.276 859.61C480.014 859.348 480.096 858.653 480.459 858.067C481.445 856.471 482.021 856.781 481.345 858.543ZM213 868V876L208.25 875.825L203.5 875.651L207.75 875.268L212 874.885V867.443C212 863.349 212.225 860 212.5 860C212.775 860 213 863.6 213 868ZM650 868V876L645.25 875.825L640.5 875.651L644.75 875.268L649 874.885V867.443C649 863.349 649.225 860 649.5 860C649.775 860 650 863.6 650 868ZM724.128 861.75C725.371 863.336 725.336 863.371 723.75 862.128C722.084 860.821 721.555 860 722.378 860C722.585 860 723.373 860.788 724.128 861.75ZM313.75 863.689C312.788 863.941 311.212 863.941 310.25 863.689C309.288 863.438 310.075 863.232 312 863.232C313.925 863.232 314.712 863.438 313.75 863.689ZM331.269 863.656C330.592 863.93 329.242 863.947 328.269 863.693C327.296 863.439 327.85 863.215 329.5 863.195C331.15 863.175 331.946 863.382 331.269 863.656ZM602.762 863.687C601.806 863.937 600.006 863.946 598.762 863.707C597.518 863.468 598.3 863.263 600.5 863.252C602.7 863.241 603.718 863.437 602.762 863.687ZM619.762 863.687C618.806 863.937 617.006 863.946 615.762 863.707C614.518 863.468 615.3 863.263 617.5 863.252C619.7 863.241 620.718 863.437 619.762 863.687ZM595.122 867.675C593.943 869.702 593.659 869.053 594.624 866.539C594.966 865.645 595.458 865.124 595.715 865.382C595.973 865.639 595.706 866.671 595.122 867.675ZM719.128 868.75C720.371 870.336 720.336 870.371 718.75 869.128C717.084 867.821 716.555 867 717.378 867C717.585 867 718.373 867.788 719.128 868.75ZM291 872V876L272.75 875.775L254.5 875.549L272.25 875.252L290 874.954V872.005V869.056L276.25 868.748L262.5 868.439L276.75 868.219L291 868V872ZM731.128 870.75C732.371 872.336 732.336 872.371 730.75 871.128C729.084 869.821 728.555 869 729.378 869C729.585 869 730.373 869.788 731.128 870.75ZM550.25 871.662C549.563 871.94 548.438 871.94 547.75 871.662C547.063 871.385 547.625 871.158 549 871.158C550.375 871.158 550.938 871.385 550.25 871.662ZM729.445 874.848C731.95 874.649 734 874.826 734 875.243C734 875.659 731.82 876 729.155 876C725.362 876 723.896 875.512 722.405 873.75L720.5 871.5L722.695 873.355C724.317 874.726 726.079 875.116 729.445 874.848ZM246 875.059C246 875.577 243.637 875.919 240.75 875.82L235.5 875.64L240.275 875.264C243.418 875.017 244.817 874.513 244.37 873.79C243.962 873.129 244.151 872.975 244.845 873.405C245.48 873.797 246 874.541 246 875.059ZM635 874.5C635 875.608 633.84 876 630.559 876C628.116 876 625.909 875.663 625.654 875.25C625.4 874.837 627.173 874.658 629.595 874.851C632.346 875.07 634 874.788 634 874.101C634 873.495 634.225 873 634.5 873C634.775 873 635 873.675 635 874.5ZM678.525 875.256L683.5 875.64L678.372 875.82C674.527 875.955 672.902 875.562 671.872 874.25C670.672 872.72 670.691 872.649 672.025 873.686C672.864 874.338 675.789 875.045 678.525 875.256ZM303.5 875C303.16 875.55 300.771 875.929 298.191 875.843L293.5 875.686L298.5 875C301.25 874.623 303.639 874.244 303.809 874.157C303.979 874.071 303.84 874.45 303.5 875ZM347 875.25C347 875.663 345.002 876 342.559 876C340.116 876 337.909 875.663 337.655 875.25C337.4 874.837 339.398 874.5 342.095 874.5C344.793 874.5 347 874.837 347 875.25ZM591.5 875C591.16 875.55 588.771 875.929 586.191 875.843L581.5 875.686L586.5 875C589.25 874.623 591.639 874.244 591.809 874.157C591.979 874.071 591.84 874.45 591.5 875ZM478.25 875.706C477.012 875.944 474.988 875.944 473.75 875.706C472.512 875.467 473.525 875.272 476 875.272C478.475 875.272 479.488 875.467 478.25 875.706Z" fill="black"/>
<path fill-rule="evenodd" clip-rule="evenodd" d="M0 512V1024H512H1024V512V0H512H0V512ZM508.98 212.75L508.961 261.5L467.76 283C445.099 294.825 412.37 311.951 395.029 321.057C377.688 330.163 351.702 343.788 337.282 351.334L311.064 365.053L288.73 352.777C276.447 346.024 255.972 334.875 243.231 328C230.49 321.125 220.058 315.275 220.05 315C220.032 314.427 222.74 312.988 275 285.801C296.175 274.786 317.1 263.842 321.5 261.482C328.598 257.675 374.068 234.084 468.5 185.213C485 176.674 500.75 168.412 503.5 166.853C506.25 165.294 508.613 164.015 508.75 164.009C508.887 164.004 508.991 185.938 508.98 212.75ZM549.718 181.352C566.648 190.346 600.3 208.175 624.5 220.971C682.94 251.872 734.515 279.209 756 290.671C765.625 295.805 780.578 303.718 789.23 308.253C797.881 312.789 804.955 316.725 804.95 317C804.945 317.275 795.428 322.45 783.802 328.5C772.175 334.55 751.463 345.462 737.776 352.75C724.089 360.038 712.622 366 712.293 366C711.965 366 708.277 364.039 704.098 361.642C699.919 359.245 682.325 349.737 665 340.513C647.675 331.289 622.475 317.798 609 310.533C595.525 303.268 569.54 289.264 551.255 279.412L518.009 261.5L518.005 213.25C518.002 186.712 518.211 165 518.468 165C518.726 165 532.788 172.359 549.718 181.352ZM238.84 335.151C290.944 363.885 341.771 392 389.5 418.488C416.45 433.445 442.55 447.851 447.5 450.501C485.567 470.884 493.625 478.855 497.028 499.5C499.659 515.454 498.992 579.375 495.923 605.493C493.345 627.439 488.565 639.573 480.187 645.445C476.549 647.994 474.738 648.525 468.614 648.834C462.359 649.15 459.871 648.705 450.652 645.62C444.766 643.65 431.999 638.218 422.28 633.548C412.561 628.878 404.46 625.207 404.277 625.39C404.094 625.573 409.184 634.222 415.587 644.611C473.203 738.085 501.469 784.865 500.761 785.572C500.462 785.871 493.756 782.544 485.859 778.177C477.961 773.811 457.325 762.593 440 753.248C393.401 728.112 395.104 729.12 392.501 725.118C391.207 723.128 382.747 708.9 373.701 693.5C356.04 663.434 310.322 586.658 305.289 578.614C303.318 575.462 300.327 572.551 296.866 570.415L291.5 567.103L291.22 578.97L290.94 590.836L254.895 609.918C235.07 620.413 218.434 629 217.925 629C217.365 629 217 593.07 217 538C217 487.95 217.185 447 217.412 447C217.639 447 220.901 448.75 224.662 450.888C228.423 453.026 244.325 461.968 260 470.758C303.722 495.276 359.669 526.731 388.784 543.164C403.241 551.324 415.943 558 417.011 558C420.961 558 422.246 553.865 422.377 540.731C422.515 527.022 421.584 524.058 415.751 519.641C413.963 518.287 374.925 496.283 329 470.742C283.075 445.202 237.963 420.1 228.75 414.959L212 405.614V363.307C212 340.038 212.266 321 212.59 321C212.915 321 224.728 327.368 238.84 335.151ZM812 477.423V630.846L778.25 648.372L744.5 665.898L744 550.199L743.5 434.5L739.111 444.5C731.777 461.212 694.387 545.082 691.346 551.64C688.798 557.139 687.925 558.061 683 560.462C677.073 563.351 644.109 580.79 637.435 584.567L633.37 586.867L629.375 581.684C627.177 578.833 615.282 563.454 602.94 547.51L580.5 518.519L579.79 557.51C579.399 578.954 578.782 631.512 578.418 674.304L577.757 752.107L565.128 758.464C558.183 761.96 542.626 770.024 530.557 776.384C518.489 782.744 508.531 787.847 508.428 787.724C508.326 787.601 508.034 718.983 507.78 635.24C507.449 525.96 507.626 482.741 508.409 482.13C509.009 481.662 528.625 471.256 552 459.006C575.375 446.756 598.957 434.317 604.404 431.363C613.571 426.392 614.402 426.124 615.579 427.747C625.703 441.705 656.903 481.434 657.587 481.238C658.089 481.094 660.022 477.494 661.883 473.238C665.236 465.568 697.728 391.878 700.861 384.837C702.326 381.544 704.308 380.211 720.495 371.637C787.614 336.085 810.593 324.027 811.25 324.015C811.663 324.007 812 393.04 812 477.423ZM290.206 637.21C290.045 657.126 289.74 673.593 289.53 673.803C289.32 674.013 283.152 670.837 275.824 666.745C257.27 656.385 234.499 643.814 228.25 640.482C225.363 638.942 223.002 637.416 223.003 637.091C223.006 636.571 288.726 601.23 290 601.064C290.275 601.028 290.368 617.294 290.206 637.21ZM236.5 828.587C238.7 829.735 241.551 832.21 242.837 834.087C244.851 837.03 245.121 838.445 244.797 844.363C244.449 850.735 244.168 851.458 240.877 854.474C238.927 856.261 236.713 857.929 235.957 858.181C234.981 858.506 236.241 861.008 240.291 866.788C243.431 871.269 246 875.175 246 875.468C246 875.761 243.854 876 241.232 876H236.463L231.062 868L225.661 860H219.33H213V868V876H208.5H204V850.926V825.852L218.25 826.176C230.35 826.451 233.104 826.815 236.5 828.587ZM290 830V834H276.452H262.905L263.202 840.25L263.5 846.5L275.25 846.782L287 847.063V850.532V854H274.947H262.894L263.099 861L263.303 868H277.152H291V872V876H273.107C257.713 876 255.129 875.779 254.607 874.418C254.273 873.548 254 862.298 254 849.418V826H272H290V830ZM336.027 850.865C342.062 864.266 347 875.403 347 875.615C347 875.827 344.95 876 342.445 876H337.889L335.195 870.033L332.5 864.066L320.414 864.033L308.327 864L305.739 870L303.15 876H298.561H293.973L295.371 872.75C300.816 860.095 315.153 827.561 315.615 826.815C315.926 826.31 318.177 826.033 320.617 826.199L325.054 826.5L336.027 850.865ZM361 847V868H374.06H387.121L386.81 871.75L386.5 875.5L369.25 875.774L352 876.047V851.024V826H356.5H361V847ZM402 851V876H397.5H393V851V826H397.5H402V851ZM452 830V834H443.5H435V855V876H430.5H426V858.125C426 848.294 425.719 838.844 425.375 837.125L424.75 834H416.375H408V830V826H430H452V830ZM468.93 838.204C472.543 844.64 475.811 849.928 476.192 849.954C476.572 849.979 479.916 844.6 483.623 838L490.363 826H495.181C497.832 826 500 826.266 500 826.592C500 826.917 496.464 832.879 492.142 839.842C480.415 858.733 480 859.712 480 868.46V876H476H472L471.923 868.75C471.881 864.763 471.712 860.825 471.546 860C471.381 859.175 467.373 851.92 462.64 843.877C451.338 824.671 451.666 825.811 457.55 826.19L462.359 826.5L468.93 838.204ZM536.85 837.75C540.65 844.212 545.11 851.898 546.761 854.83L549.762 860.16L552.737 854.83C554.373 851.898 557.87 845.45 560.508 840.5C567.824 826.773 568.615 825.838 572.612 826.196L576.012 826.5L576.256 851L576.5 875.5L572.275 875.806L568.05 876.113L567.775 860.053L567.5 843.994L560.501 856.675C556.651 863.649 552.907 869.95 552.179 870.678C549.19 873.667 547.514 871.997 539.5 858.048L531.5 844.123L531 859.812L530.5 875.5L526.25 875.807L522 876.115V851.057V826H525.97H529.94L536.85 837.75ZM622.92 848C628.248 859.825 633.145 870.483 633.803 871.684C635.784 875.3 635.236 876 630.425 876H625.85L623.261 870L620.673 864L608.586 864.033L596.5 864.066L593.805 870.033L591.111 876H586.52C582.463 876 582.037 875.797 582.853 874.25C583.361 873.288 587.605 863.725 592.283 853C605.259 823.256 603.653 825.856 608.824 826.204L613.233 826.5L622.92 848ZM669.344 827.079C683.468 831 686.069 850.373 673.442 857.605C671.622 858.647 671.795 859.126 676.507 866.091C679.253 870.15 681.86 874.041 682.3 874.736C682.905 875.693 681.888 876 678.119 876H673.138L667.5 868L661.862 860H655.931H650V868V876H645.5H641V851V826L653.25 826.006C659.987 826.009 667.23 826.492 669.344 827.079ZM699.225 839L698.95 851.5L711.225 838.739L723.5 825.978L728.874 825.989L734.247 826L723.796 837.25L713.346 848.5L723.673 861.5C729.353 868.649 734 874.86 734 875.302C734 875.743 731.648 875.969 728.774 875.802L723.548 875.5L715.524 864.816L707.5 854.132L703.25 858.274C699.074 862.345 699 862.534 699 869.208V876H694.5H690V850.945V825.89L694.75 826.195L699.5 826.5L699.225 839ZM776 830V834H762.5H749V840.5V847H761H773V850.5V854H761H749V861V868H763H777V872V876H758.5H740V851V826H758H776V830ZM823 830V834H814.5H806V855V876H801.5H797V855V834H788H779V830V826H801H823V830ZM213 843.523V853.245L221.98 852.815C229.712 852.446 231.311 852.057 233.48 850.019C237.045 846.67 237.016 840.304 233.421 836.924C231.166 834.805 229.719 834.456 221.921 834.151L213 833.801V843.523ZM650 843.549V853.297L658.692 852.684C669.339 851.932 672.273 849.842 672.273 843.005C672.273 836.203 669.825 834.573 658.973 834.151L650 833.801V843.549ZM316.125 845.71C313.854 851.095 311.997 855.837 311.998 856.25C311.999 856.663 316.006 857 320.902 857H329.805L325.303 846.75C322.828 841.112 320.678 836.37 320.528 836.21C320.377 836.051 318.396 840.326 316.125 845.71ZM604.148 846.114C601.807 851.675 600.084 856.418 600.32 856.653C600.556 856.889 604.595 856.951 609.296 856.791L617.843 856.5L613.821 847C611.609 841.775 609.486 837.163 609.102 836.752C608.718 836.34 606.489 840.554 604.148 846.114Z" fill="#353638"/>
<path fill-rule="evenodd" clip-rule="evenodd" d="M0 512V1024H512H1024V512V0H512H0V512ZM509.13 212.849L509.45 261.198L479.975 276.674C306.983 367.506 310.98 365.468 308.646 364.011C306.179 362.471 252.59 333.057 233.265 322.636C225.987 318.711 220.029 315.275 220.027 315C220.021 314.144 268.991 288.494 434 202.924C451.325 193.939 475.175 181.552 487 175.396C498.825 169.24 508.57 164.27 508.655 164.351C508.741 164.433 508.955 186.257 509.13 212.849ZM562.384 187.878C586.098 200.461 621.025 218.964 640 228.997C696.752 259.003 777.33 301.721 797.249 312.361C801.511 314.637 804.994 316.725 804.99 317C804.985 317.275 795.648 322.415 784.241 328.422C772.833 334.429 752.192 345.342 738.371 352.672C724.55 360.002 712.927 366 712.542 366C712.157 366 703.665 361.568 693.671 356.15C683.677 350.733 668.3 342.46 659.5 337.767C634.404 324.383 532.984 269.84 521.75 263.686L518 261.632V213.316C518 186.742 518.285 165 518.634 165C518.982 165 538.67 175.295 562.384 187.878ZM240.474 335.922C254.238 343.519 270.675 352.568 277 356.031C283.325 359.494 316.85 378.052 351.5 397.27C415.128 432.561 430.022 440.801 457.786 456.071C495.298 476.702 498.906 483.84 498.948 537.5C498.969 563.337 497.42 595.489 495.468 609.762C491.54 638.478 483.559 649.286 466.355 649.186C458.069 649.139 446.3 645.03 422.735 633.959C412.414 629.11 404.27 625.673 404.637 626.321C405.004 626.97 413.048 640.1 422.511 655.5C485.057 757.281 501.994 785.427 500.932 785.822C500.455 786 490.263 780.774 478.283 774.21C466.302 767.646 444.575 755.825 430 747.941C415.425 740.057 401.4 732.467 398.833 731.073C394.493 728.717 393.305 727.066 381.875 707.52C375.114 695.959 363.008 675.475 354.972 662C346.936 648.525 331.776 623.1 321.284 605.5C302.285 573.632 302.183 573.487 296.603 570.302L291 567.103V578.971V590.838L282.75 595.284C251.623 612.058 219.179 629 218.183 629C217.281 629 217 607.393 217 538C217 487.95 217.21 447 217.467 447C217.894 447 248.975 464.266 267 474.516C271.125 476.862 291.15 488.109 311.5 499.509C331.85 510.91 357.05 525.076 367.5 530.989C410.393 555.262 415.585 558.044 417.491 557.778C420.908 557.301 422.152 552.759 422.308 540.194C422.476 526.566 421.482 523.801 414.749 519.176C412.412 517.571 374.05 495.988 329.5 471.213C284.95 446.439 240.175 421.497 230 415.786L211.5 405.404L211.545 401.202C211.57 398.891 211.683 379.852 211.795 358.893C211.987 323.279 212.113 320.829 213.724 321.448C214.672 321.811 226.71 328.325 240.474 335.922ZM811.95 477.25L811.901 631.5L803.2 635.709C798.415 638.023 783.25 645.786 769.5 652.958C755.75 660.131 744.389 665.999 744.254 665.999C744.119 666 743.894 613.913 743.754 550.25L743.5 434.5L738.322 446.5C732.452 460.103 702.013 528.494 693.973 546.147L688.667 557.794L672.084 566.385C662.963 571.11 650.487 577.66 644.359 580.939L633.218 586.902L628.807 581.201C591.226 532.632 580.613 519.054 580.398 519.269C580.257 519.41 579.644 571.72 579.036 635.513C578.189 724.423 577.647 751.686 576.715 752.298C573.821 754.197 508.746 788.075 508.516 787.802C508.376 787.636 507.96 718.875 507.592 635L506.921 482.5L549.711 460.032C573.245 447.674 597.427 434.961 603.449 431.78C609.471 428.6 614.693 426.336 615.054 426.749C615.414 427.162 625.085 439.791 636.543 454.814C656.326 480.749 657.439 482.01 658.596 479.802C659.266 478.524 668.132 458.582 678.299 435.489C703.01 379.358 702.379 380.677 705.133 379.414C708.34 377.943 765.632 347.741 791 334.149C802.275 328.107 811.612 323.127 811.75 323.082C811.888 323.037 811.978 392.413 811.95 477.25ZM291 637.333C291 657.317 290.761 673.906 290.469 674.198C290.177 674.49 280.614 669.555 269.219 663.231C257.824 656.907 242.505 648.458 235.178 644.456L221.855 637.179L228.178 633.678C241.236 626.446 289.53 601.036 290.25 601.019C290.663 601.008 291 617.35 291 637.333ZM233.277 827.06C245.565 830.472 249.889 845.377 241.12 854.093C239.129 856.072 236.865 857.897 236.09 858.149C235.069 858.48 236.243 860.838 240.34 866.685C243.453 871.127 246 875.041 246 875.381C246 875.722 243.814 876 241.142 876C236.33 876 236.246 875.944 232.516 870.25C226.25 860.687 225.627 860.224 218.926 860.129L213 860.046V868.023V876H208.5H204V851V826L216.75 826.006C223.762 826.009 231.2 826.483 233.277 827.06ZM290 830V834H277H264V840.554V847.108L275.25 846.924L286.5 846.739L286.81 850.37L287.121 854H275.56H264V861V868H277.5H291V872.023V876.045L272.75 875.773L254.5 875.5L254.233 850.75L253.965 826H271.983H290V830ZM336.058 850.5C342.028 863.7 346.933 874.837 346.957 875.25C346.981 875.663 344.824 876 342.164 876H337.327L334.739 870L332.15 864H320.311H308.472L305.82 870L303.169 876H298.477C295.114 876 293.933 875.646 294.305 874.75C296.478 869.518 314.228 829.442 315.065 827.878C315.927 826.267 316.977 825.952 320.664 826.198L325.202 826.5L336.058 850.5ZM361 847V868H374H387V872V876H369.5H352V851V826H356.5H361V847ZM402 851V876H397.5H393V851V826H397.5H402V851ZM468.74 837.44C472.173 843.458 475.371 848.771 475.849 849.249C476.339 849.739 479.669 844.874 483.508 838.058L490.3 826H495.15C497.817 826 500 826.27 500 826.6C500 826.93 495.837 834.016 490.75 842.346L481.5 857.493L481 866.497L480.5 875.5H476H471.5L471 866.5L470.5 857.5L461.5 842.043C452.811 827.121 452.489 826.715 452.19 830.293L451.879 834H443.44H435V855.055V876.11L430.25 875.805L425.5 875.5L425.23 854.75L424.959 834H416.48H408V829.984V825.968L435.25 826.234L462.5 826.5L468.74 837.44ZM530.778 827.25C531.34 827.938 535.856 835.593 540.812 844.261L549.824 860.023L559.079 842.962L568.334 825.901L572.417 826.201L576.5 826.5L576.767 851.25L577.035 876H572.542H568.05L567.775 860.102L567.5 844.205L559.942 857.852C553.567 869.364 551.982 871.548 549.814 871.805C547.586 872.069 546.775 871.269 543.723 865.805C541.787 862.337 538.132 855.911 535.601 851.524L531 843.548V859.774V876H526.5H522V851V826H525.878C528.01 826 530.215 826.563 530.778 827.25ZM624.204 850.48C630.142 863.669 635 874.806 635 875.23C635 875.653 632.937 876 630.416 876H625.831L623.18 870L620.528 864H608.689H596.85L594.261 870L591.673 876H586.872H582.071L583.924 871.75C584.943 869.413 589.691 858.506 594.476 847.513C599.26 836.521 603.401 827.16 603.678 826.712C603.955 826.264 606.257 826.033 608.794 826.199L613.407 826.5L624.204 850.48ZM669.477 827.115C675.432 828.768 680.652 834.494 681.527 840.331C682.495 846.788 679.983 853.347 675.407 856.31C673.547 857.515 672.019 858.77 672.012 859.101C672.006 859.431 674.475 863.151 677.5 867.367C680.525 871.583 683 875.25 683 875.516C683 875.782 680.76 876 678.023 876H673.045L667.439 868C661.898 860.092 661.783 860 657.499 860C650.256 860 650 860.293 650 868.607V876H645.556H641.111L640.806 862.75C640.638 855.462 640.626 844.212 640.781 837.75L641.062 826L653.281 826.006C660.001 826.009 667.29 826.508 669.477 827.115ZM699.7 838.75L699.092 851.5L711.296 838.68L723.5 825.86L728.752 826.18L734.003 826.5L724.002 837.163C718.501 843.027 714 848.092 714 848.418C714 848.744 718.5 854.698 724 861.648C729.5 868.598 734 874.67 734 875.142C734 875.614 731.755 876 729.012 876H724.024L718.262 868.704C715.093 864.692 711.304 859.854 709.843 857.954L707.186 854.5L703.634 857.907C700.3 861.103 700.063 861.751 699.791 868.407L699.5 875.5L694.75 875.805L690 876.11V851.055V826H695.154H700.309L699.7 838.75ZM776 830V834H762.452H748.905L749.202 840.25L749.5 846.5L761.25 846.782L773 847.063V850.532V854H761H749V861V868H763H777V872V876H758.5H740V851V826H758H776V830ZM823 830V834H814.5H806V855V876H801.5H797L796.994 863.25C796.991 856.237 796.699 846.788 796.346 842.25L795.704 834H787.352H779V830V826H801H823V830ZM213 843.539V853.277L222.204 852.753C230.616 852.273 231.605 851.998 233.704 849.558C236.776 845.987 236.728 840.958 233.587 837.306C231.326 834.677 230.602 834.478 222.087 834.151L213 833.801V843.539ZM650 843V852H658.927C667.381 852 667.965 851.86 669.927 849.365C671.952 846.791 672.623 841.787 671.379 838.545C670.242 835.583 665.426 834 657.55 834H650V843ZM316.147 845.999C313.866 851.521 312 856.255 312 856.519C312 856.784 315.825 857 320.5 857C325.175 857 329 856.752 329 856.449C329 855.888 320.976 836.722 320.535 836.23C320.402 836.081 318.427 840.477 316.147 845.999ZM604.237 846.24C601.893 851.777 600.148 856.482 600.361 856.695C600.574 856.907 604.562 856.951 609.224 856.791L617.7 856.5L613.55 846.783C611.267 841.439 609.197 836.865 608.95 836.62C608.702 836.374 606.582 840.703 604.237 846.24Z" fill="#353638"/>
<path fill-rule="evenodd" clip-rule="evenodd" d="M0 512V1024H512H1024V512V0H512H0V512ZM509.76 212.75L509.5 261.5L465 284.803C414.728 311.129 363.406 338.055 332.851 354.134C321.494 360.11 311.742 365 311.179 365C310.617 365 295.159 356.756 276.828 346.681C258.498 336.605 238.775 325.828 233 322.731C227.225 319.634 221.715 316.515 220.755 315.8C219.218 314.655 221.358 313.281 238.755 304.249C249.615 298.61 269.975 288.007 284 280.686C307.093 268.632 331.431 255.967 419 210.432C478.721 179.379 508.527 164.055 509.26 164.028C509.677 164.013 509.902 185.938 509.76 212.75ZM550.203 181.128C567.966 190.548 593.525 204.102 607 211.247C620.475 218.392 647.925 232.923 668 243.536C688.075 254.15 713.05 267.362 723.5 272.896C733.95 278.43 756.772 290.505 774.216 299.729C791.66 308.953 805.933 316.725 805.933 317C805.934 317.275 796.011 322.675 783.882 329C771.754 335.325 750.732 346.417 737.165 353.649L712.5 366.798L709 364.762C707.075 363.643 686.825 352.727 664 340.506C579.837 295.441 526.763 266.836 521.25 263.568L517 261.049V212.525C517 185.836 517.204 164 517.453 164C517.701 164 532.439 171.708 550.203 181.128ZM225.64 327.606C233.263 331.789 249.4 340.623 261.5 347.237C273.6 353.851 291.375 363.645 301 369.001C344.813 393.383 430.425 440.797 449 450.968C480.879 468.423 486.935 473.018 492.477 483.955C498.143 495.136 498.504 498.758 498.457 544C498.39 608.619 495.226 630.429 484.214 642.202C479.671 647.059 473.189 650 467.029 650C459.472 650 444.35 644.526 421.231 633.424C411.733 628.862 404.149 625.438 404.378 625.815C404.607 626.192 410.081 635.05 416.543 645.5C462.877 720.435 502.475 785.858 501.864 786.469C501.613 786.721 477.267 773.861 447.763 757.891L394.118 728.857L375.18 696.678C347.898 650.321 307.368 582.35 304.207 577.65C301.913 574.24 294.233 568.339 291.75 568.079C291.337 568.035 291 573.303 291 579.785V591.571L284.496 594.778C280.919 596.542 264.474 605.188 247.952 613.993C231.43 622.797 217.707 630 217.456 630C217.205 630 217 588.777 217 538.393C217 451.779 217.095 446.822 218.739 447.453C220.284 448.046 270.086 475.832 299.5 492.511C358.659 526.058 416.217 558 417.509 558C420.45 558 422 551.765 422 539.933C422 527.535 420.745 523.379 415.976 519.983C414.448 518.895 377.716 498.268 334.349 474.146C290.982 450.024 245.488 424.711 233.251 417.894L211.002 405.5L211.001 362.75C211.001 339.238 211.175 320 211.39 320C211.604 320 218.017 323.423 225.64 327.606ZM812.665 413.75C812.3 463.663 812.001 533.094 812.001 568.042L812 631.583L806.25 634.368C803.087 635.899 788.076 643.643 772.891 651.576C757.706 659.509 744.881 666 744.391 666C743.873 666 743.593 617.701 743.721 550.75L743.942 435.5L741.039 441.5C739.442 444.8 729.969 465.95 719.987 488.5C710.006 511.05 698.881 535.943 695.267 543.818L688.695 558.136L678.098 563.471C672.269 566.405 659.89 572.899 650.589 577.903C641.288 582.906 633.413 586.969 633.089 586.931C632.765 586.893 630.286 583.856 627.58 580.181C624.875 576.506 613.175 561.258 601.58 546.296L580.5 519.093L579.89 568.796C579.554 596.133 579.217 639.915 579.14 666.089C579.063 692.263 578.706 722.463 578.346 733.2L577.692 752.722L571.096 755.938C567.468 757.707 551.985 765.692 536.689 773.683C521.393 781.674 508.599 787.932 508.257 787.59C507.915 787.248 507.433 718.45 507.185 634.706L506.736 482.444L520.618 475.082C528.253 471.033 543.95 462.781 555.5 456.744C567.05 450.707 584.879 441.319 595.12 435.884C605.361 430.448 613.955 426 614.217 426C614.479 426 624.307 438.581 636.056 453.957C647.806 469.334 657.524 481.809 657.653 481.68C657.782 481.551 665.276 464.583 674.307 443.973C683.338 423.363 693.317 400.758 696.482 393.741L702.238 380.981L712.369 375.556C748.056 356.445 811.65 323.058 812.415 323.032C812.966 323.013 813.066 359.058 812.665 413.75ZM290.594 674.739C290.2 675.134 278.475 668.822 246.5 651.003C239.9 647.325 231.688 642.832 228.25 641.018C224.813 639.205 222.002 637.447 222.004 637.111C222.008 636.536 228.523 633 262.493 615.132C270.197 611.08 279.65 606.031 283.5 603.913L290.5 600.06L290.762 637.185C290.907 657.603 290.831 674.502 290.594 674.739ZM291 830.044V834H277.5H264V840V846H275.5H287V850V854H275.5H264V861V868H277.5H291V872V876H272.5H254V851.167C254 837.508 254.186 826.146 254.414 825.917C254.642 825.688 262.967 825.632 272.914 825.794L291 826.087V830.044ZM325.09 826.714C326.085 827.739 347 873.932 347 875.104C347 875.597 344.807 876 342.127 876H337.254L334.771 870.25L332.288 864.5L320.495 864.422L308.702 864.344L306.187 870.172L303.673 876H298.836C296.176 876 294 875.789 294 875.532C294 874.052 315.39 826.365 316.345 825.714C317.665 824.815 323.945 825.533 325.09 826.714ZM623.178 847.543C628.632 859.62 633.725 870.962 634.496 872.75L635.898 876H630.613H625.327L622.79 870.118L620.252 864.236L608.614 864.269L596.977 864.301L594.352 870.151L591.727 876H586.863C584.189 876 582 875.874 582 875.719C582 875.564 586.844 864.427 592.766 850.969L603.531 826.5L607.516 825.899C609.707 825.569 611.896 825.364 612.38 825.443C612.865 825.522 617.723 835.467 623.178 847.543ZM236.743 828.559C245.198 832.772 248.152 841.663 244.079 850.634C243.036 852.93 240.824 855.582 239.101 856.599C237.395 857.607 236 858.828 236 859.313C236 859.799 238.506 863.751 241.569 868.098L247.138 876H241.599H236.061L231 868.5L225.939 861H219.47H213V868.555V876.11L208.25 875.805C204.056 875.536 203.508 875.237 203.571 873.25C203.611 872.013 203.723 860.875 203.821 848.5L204 826H217.804C230.608 826 231.979 826.185 236.743 828.559ZM362 847V868H374.5H387V872V876H369.5H352V851V826H357H362V847ZM402 851V876H397H392V851V826H397H402V851ZM469.412 838.059L476.324 850.117L479.327 844.808C480.978 841.889 484.075 836.462 486.209 832.75L490.088 826H495.659H501.23L499.427 828.75C498.435 830.263 493.884 837.663 489.312 845.196L481 858.893V867.446V876H476H471V867.408V858.815L461.846 843.158C456.812 834.546 452.494 827.275 452.251 827C452.008 826.725 451.965 828.075 452.155 830L452.5 833.5L443.75 833.789L435 834.078V855.039V876H430H425V855V834H416.5H408V830V826L435.25 826.001L462.5 826.002L469.412 838.059ZM536.423 836.268C550.406 860.425 549.719 859.428 550.957 857.376C551.579 856.344 555.601 848.975 559.895 841L567.701 826.5L572.351 826.195L577 825.89V850.945V876H572.525H568.051L567.775 860.25L567.5 844.5L562.092 854.5C553.667 870.078 552.293 872 549.579 872C547.555 872 545.967 869.898 539.342 858.444L531.5 844.889L531.225 860.444L530.949 876H526.475H522V851V826L526.25 826.018L530.5 826.036L536.423 836.268ZM673.093 828.294C683.806 833.869 685.025 850.103 675.222 856.65L671.943 858.839L677.472 866.958C680.512 871.424 683 875.285 683 875.539C683 875.792 680.749 876 677.998 876C672.628 876 672.851 876.203 663 862.309C661.682 860.451 660.802 860.258 655.75 860.721L650 861.248V868.624V876H645H640V851V826H654.343C667.35 826 669.096 826.214 673.093 828.294ZM700 837.535C700 851.498 699.503 851.533 713 836.61L722.5 826.107L728.25 826.053C731.413 826.024 734 826.297 734 826.659C734 827.022 729.458 831.987 723.907 837.692L713.813 848.067L716.606 851.783C718.141 853.827 722.594 859.55 726.501 864.5C736.287 876.9 736.068 876.005 729.309 875.971L723.5 875.942L717 867.384C713.425 862.677 709.746 857.853 708.824 856.663L707.148 854.5L703.574 857.946C700.116 861.28 700 861.63 700 868.696V876H695H690V851V826H695H700V837.535ZM776 830V834H763H750V840V846H761.5H773V850V854H761.582H750.164L749.832 861.002L749.5 868.005L763.25 868.002L777 868V872V876H758.5H740V851V826H758H776V830ZM823 830V834H814.5H806V855V876H801H796V855V834H787.5H779V830V826H801H823V830ZM213 843V852H222.045C230.316 852 231.301 851.79 233.545 849.545C237.836 845.255 236.254 837.84 230.538 835.452C228.619 834.65 223.917 834 220.032 834H213V843ZM650 842.897V852H658.545C666.285 852 667.322 851.769 669.545 849.545C672.996 846.095 672.938 840.23 669.42 836.924C667.195 834.834 665.681 834.451 658.42 834.147L650 833.795V842.897ZM316.524 845.703C314.481 850.541 312.579 855.063 312.298 855.75C311.912 856.693 313.901 857 320.393 857C325.127 857 329 856.853 329 856.672C329 856.21 320.892 837.564 320.534 837.203C320.372 837.04 318.568 840.865 316.524 845.703ZM604.218 846.698L600.141 856.5L608.195 856.792C612.624 856.953 616.477 856.856 616.757 856.576C617.283 856.05 610.364 839.121 609.041 837.698C608.631 837.256 606.461 841.306 604.218 846.698Z" fill="white"/>
</svg>
